<?xml version="1.0" encoding="UTF-8"?>
<svg xmlns="http://www.w3.org/2000/svg" width="160" height="34" viewBox="0 0 160 34" fill="none">
  <g id="doobert" clip-path="url(#clip0_890_7145)">
    <g id="Group">
      <g id="Group_2">
        <path id="Vector" d="M19.7634 0.0820312C21.9639 0.0820312 24.185 0.0820312 26.3855 0.0820312C26.4061 6.77962 26.3649 13.4772 26.4061 20.1748C26.6529 22.8989 25.9742 25.6844 24.4935 27.9579C22.6837 30.764 19.7223 32.7917 16.4729 33.57C13.9228 34.164 11.1876 34.0616 8.69913 33.1808C5.14129 31.9724 2.15929 29.1869 0.822525 25.664C-0.246884 22.9194 -0.26745 19.8061 0.781394 17.0616C1.89193 14.0302 4.25697 11.5109 7.15672 10.0977C11.0436 8.15191 15.8971 8.23384 19.7017 10.323C19.7428 6.923 19.6606 3.50251 19.7634 0.0820312ZM11.1876 14.8085C8.80196 15.382 6.95106 17.4917 6.51918 19.8676C5.90222 22.776 7.4652 26.0121 10.221 27.1796C12.6477 28.3061 15.712 27.4664 17.3367 25.3772C19.5166 22.776 19.2493 18.4953 16.6786 16.2423C15.2595 14.87 13.1207 14.3375 11.1876 14.8085Z" fill="#6D6E71"></path>
      </g>
      <g id="Group_3">
        <path id="Vector_2" d="M75.9075 0.143115C78.108 0.0202238 80.3085 0.0816695 82.509 0.102151C82.509 3.50215 82.509 6.92263 82.509 10.3226C85.162 8.8889 88.329 8.37685 91.3111 8.90938C94.7866 9.46239 98.0154 11.4901 100.01 14.3781C101.758 16.8769 102.54 20.0515 102.067 23.0624C101.614 26.3805 99.6812 29.4323 96.9666 31.3985C92.2776 34.9009 85.2648 34.819 80.6787 31.1732C78.0051 29.125 76.1542 25.9708 75.8252 22.6118C75.6195 21.1166 75.9691 19.6214 75.8458 18.1262C75.9486 15.8118 75.7635 13.4973 75.8663 11.1624C75.9075 7.49613 75.8458 3.80938 75.9075 0.143115ZM87.7121 14.7877C85.3265 15.3202 83.4139 17.3684 82.9614 19.7443C82.2416 22.7347 83.9075 26.1347 86.8072 27.2612C89.3368 28.3262 92.4216 27.3226 93.964 25.0901C95.8766 22.5094 95.5681 18.6178 93.2442 16.3853C91.8252 14.972 89.6864 14.3371 87.7121 14.7877Z" fill="#6D6E71"></path>
      </g>
      <path id="Vector_3" d="M147.414 3.13354C149.717 3.13354 152 3.13354 154.303 3.13354C154.303 5.18174 154.303 7.22993 154.303 9.27812C156.195 9.27812 158.067 9.27812 159.959 9.27812C160.041 11.2239 160 13.1902 159.959 15.136C158.067 15.136 156.195 15.136 154.303 15.136C154.303 18.6384 154.283 22.1613 154.303 25.6637C154.283 26.5239 154.776 27.4866 155.681 27.6709C157.121 27.9781 158.622 27.548 159.918 26.8926C159.918 28.7155 159.918 30.5588 159.918 32.3817C157.47 33.8155 154.468 34.1022 151.733 33.4673C150.355 33.16 149.121 32.2588 148.421 31.0299C147.455 29.4119 147.393 27.4866 147.393 25.6637C147.393 22.1408 147.393 18.6179 147.393 15.1155C146.447 15.1155 145.481 15.1155 144.514 15.1155C144.514 13.1697 144.514 11.2034 144.514 9.25764C145.46 9.25764 146.427 9.25764 147.393 9.25764C147.414 7.22993 147.414 5.18174 147.414 3.13354Z" fill="#6D6E71"></path>
      <g id="Group_4">
        <path id="Vector_4" d="M109.491 10.0154C111.876 8.80702 114.673 8.62268 117.265 9.0528C120.432 9.58533 123.27 11.6745 124.792 14.4805C126.313 17.2865 126.745 20.5841 126.437 23.7383C120.822 23.7383 115.208 23.7383 109.614 23.7383C109.902 25.1106 110.56 26.4624 111.712 27.3022C113.337 28.5106 115.537 28.695 117.47 28.2239C118.972 27.8757 120.247 26.9745 121.378 25.9709C122.673 27.1793 124.092 28.2444 125.306 29.5347C123.599 31.46 121.419 32.9962 118.869 33.5697C115.393 34.348 111.568 33.9793 108.483 32.1359C105.768 30.5383 103.815 27.7733 103.116 24.7215C102.396 21.6492 102.704 18.3311 104.082 15.4841C105.234 13.1287 107.146 11.1624 109.491 10.0154ZM111.301 15.6889C110.293 16.6926 109.799 18.0853 109.491 19.4576C112.946 19.4576 116.401 19.4576 119.856 19.4576C119.589 17.6757 118.766 15.8528 117.162 14.9106C115.311 13.948 112.781 14.1733 111.301 15.6889Z" fill="#6D6E71"></path>
      </g>
      <path id="Vector_5" d="M138.447 9.58498C139.661 8.92956 141.08 8.82715 142.416 8.82715C142.416 11.2235 142.416 13.5994 142.416 15.9958C140.524 15.9549 138.55 16.385 137.09 17.6549C135.424 19.0681 134.848 21.3416 134.745 23.4512C134.684 26.7693 134.766 30.0874 134.704 33.4055C132.401 33.385 130.118 33.4055 127.815 33.4055C127.815 25.3561 127.815 17.3271 127.815 9.29823C130.098 9.29823 132.38 9.29823 134.663 9.29823C134.766 10.8753 134.684 12.4729 134.725 14.05C135.527 12.2476 136.72 10.5681 138.447 9.58498Z" fill="#6D6E71"></path>
    </g>
    <g id="Group_5">
      <g id="Group_6">
        <path id="Vector_6" d="M33.6041 10.1997C36.5656 8.60216 40.144 8.17204 43.4139 8.99131C46.5604 9.74914 49.3985 11.7154 51.2082 14.3781C53.0386 11.7154 55.8561 9.74914 59.0026 8.99131C62.4782 8.11059 66.2828 8.6636 69.3471 10.507C71.7327 11.9202 73.6453 14.1118 74.6735 16.6925C75.6607 19.1504 75.8458 21.9154 75.1054 24.4552C74.2005 27.8142 71.7738 30.6612 68.7095 32.2793C65.5013 33.9998 61.5938 34.307 58.1183 33.1805C55.3214 32.2998 52.8535 30.4564 51.2082 28.06C49.5219 30.4973 47.0129 32.3612 44.1748 33.2419C40.6581 34.3479 36.689 33.9588 33.4602 32.1564C30.2519 30.3949 27.8252 27.2407 27.126 23.6564C26.5501 20.9937 26.9615 18.1263 28.216 15.7094C29.3676 13.354 31.3008 11.4287 33.6041 10.1997ZM40.3908 15.1154C39.5887 15.7708 39.2802 16.8973 39.3625 17.901C39.383 18.4949 40 18.7612 40.4936 18.9046C41.0489 19.0684 41.8509 19.1299 42.2005 18.5564C42.6735 17.3684 42.2417 15.9142 41.2545 15.1359C41.0077 14.9311 40.6375 14.9311 40.3908 15.1154ZM60.3805 16.672C60.3188 16.3853 60.3394 16.0166 60.072 15.8118C59.5579 15.6479 59.0232 15.7708 58.4884 15.7913C58.3856 16.6516 58.4062 17.5118 58.4268 18.372C57.8715 18.9865 57.1311 19.4576 56.6581 20.1744C56.7404 20.9937 57.6247 21.0142 58.0977 20.5022C58.1594 22.2841 57.9332 24.107 58.2417 25.8684C59.0437 25.9299 59.8458 25.9708 60.6478 25.8684C60.9769 25.9299 61.1208 25.5817 61.1208 25.3154C61.162 24.66 61.1208 23.9841 61.1208 23.3287C61.964 23.3287 62.8072 23.3287 63.6504 23.3287C63.7327 24.1479 63.4447 25.0696 63.8355 25.8275C64.7815 26.0528 65.7687 25.9504 66.7147 25.8275C66.8175 24.107 66.7558 22.3865 66.7558 20.666C67.3522 20.9118 67.7635 20.4817 68.0103 19.9901C66.5707 18.4949 64.9049 17.2455 63.3831 15.8323C62.9923 15.566 62.6427 15.013 62.108 15.1564C61.4705 15.5455 60.9563 16.16 60.3805 16.672ZM37.1208 15.8118C36.1748 16.4058 35.6196 17.7781 36.1337 18.8022C36.7095 19.4371 38.2725 19.601 38.4987 18.5564C38.6838 17.7576 38.6016 16.8769 38.1902 16.1395C37.9846 15.7708 37.5116 15.6275 37.1208 15.8118ZM43.6607 17.7781C43.0232 18.2082 42.5707 18.9865 42.6324 19.7648C42.6941 20.3793 43.2699 20.7889 43.8252 20.9732C44.2571 21.1371 44.9152 21.1985 45.1414 20.6865C45.5733 19.7853 45.2442 18.6588 44.689 17.8805C44.4833 17.4708 43.9692 17.5528 43.6607 17.7781ZM34.8175 19.3961C34.0771 20.0106 33.8304 21.1985 34.3239 22.0383C34.8586 22.4889 36.0309 22.5094 36.2777 21.7106C36.5039 20.9323 36.1954 20.072 35.6401 19.4985C35.4345 19.2528 35.0437 19.1913 34.8175 19.3961ZM38.5399 20.113C37.7172 20.3997 37.3676 21.26 36.9358 21.9359C36.5039 22.6732 35.9075 23.3901 35.9075 24.2913C35.928 25.3359 37.0797 26.0732 38.0669 25.8684C38.6221 25.7046 39.0951 25.2745 39.6915 25.213C40.473 25.1311 40.9872 25.9504 41.7481 25.8889C42.7764 25.8479 43.8046 24.9058 43.6401 23.8407C43.5579 23.1648 43.1054 22.6323 42.7352 22.0793C42.3856 21.6082 42.0977 21.0961 41.6864 20.666C40.8843 19.8058 39.5887 19.9082 38.5399 20.113ZM46.725 22.2841C46.2725 22.4275 46.0669 23.0214 46.3136 23.4311C46.581 24.0046 47.5681 23.9841 47.7944 23.3696C48.1028 22.7142 47.3831 21.9973 46.725 22.2841ZM49.419 22.3046C48.946 22.5299 48.8226 23.2467 49.2134 23.5949C49.6658 24.0865 50.6735 23.7588 50.5707 23.0419C50.653 22.4275 49.9537 22.0383 49.419 22.3046ZM52.2571 22.2636C51.8252 22.4479 51.5373 23.0214 51.8458 23.4311C52.1543 24.025 53.1825 23.9226 53.3676 23.2672C53.5527 22.6323 52.8741 22.0383 52.2571 22.2636ZM54.9923 22.2841C54.4782 22.4684 54.3959 23.2467 54.7455 23.6154C55.2185 24.066 56.1851 23.7383 56.1028 23.0419C56.1645 22.4479 55.5064 22.0588 54.9923 22.2841Z" fill="#F0592B"></path>
      </g>
    </g>
  </g>
  <defs>
    <clipPath id="clip0_890_7145">
      <rect width="160" height="34" fill="white"></rect>
    </clipPath>
  </defs>
</svg>
