<?xml version="1.0" encoding="UTF-8"?>
<svg xmlns="http://www.w3.org/2000/svg" width="151" height="44" viewBox="0 0 151 44" fill="none">
  <g id="Herco freites" clip-path="url(#clip0_890_7228)">
    <g id="Group">
      <path id="Vector" d="M17.1642 0.503354C17.4126 0.392972 17.7713 0.323983 17.9645 0.572342C18.3508 1.05526 18.5992 1.63477 18.9165 2.14528C20.1583 4.17355 21.3173 6.257 22.5591 8.28526C23.1248 9.09933 23.0145 10.1893 22.5867 11.0448C22.435 11.3897 22.2004 11.7761 22.3798 12.1486C22.5177 12.535 22.9731 12.5901 23.318 12.5764C27.1814 12.5764 31.0585 12.5764 34.9219 12.5764C35.322 12.5764 35.8325 12.6315 35.9843 13.0731C36.2189 13.4732 35.9429 13.9285 35.7636 14.3011C32.8936 19.2958 30.0099 24.2768 27.14 29.2854C26.5191 30.2926 25.3877 31.1481 24.1459 31.0515C21.3449 31.0377 18.5302 31.0653 15.7155 31.0377C14.9704 30.9963 14.9566 30.0167 15.2326 29.5199C17.7437 25.1047 20.2963 20.7032 22.8489 16.3017C23.0697 15.9016 23.3456 15.4877 23.2904 15.0048C23.2766 14.5908 22.8627 14.3149 22.4764 14.3425C21.4001 14.3287 20.4067 15.0185 19.8134 15.8878C19.1649 16.9502 18.544 18.0402 17.9369 19.1165C15.9776 22.4555 14.0873 25.836 12.1281 29.175C11.5348 30.196 10.4723 31.0929 9.24435 31.0515C6.42962 31.0377 3.61488 31.0515 0.813947 31.0515C0.275836 31.1205 -0.16569 30.5272 -0.041511 30.0167C0.0964661 29.5061 0.413813 29.0646 0.689768 28.6093C5.75353 19.834 10.8173 11.0586 15.8811 2.29706C16.2674 1.67616 16.5019 0.875892 17.1642 0.503354Z" fill="#C4161C"></path>
      <g id="Group_2">
        <path id="Vector_2" d="M39.8063 12.7005C40.1375 12.6039 40.4962 12.5901 40.8411 12.5901C48.1125 12.5901 55.3701 12.5901 62.6415 12.5901C63.1934 12.6039 63.7315 12.5625 64.2835 12.6453C64.656 12.7005 64.9871 13.0592 64.9457 13.4455C64.9319 14.1492 64.4076 14.7149 64.1041 15.3082C63.0692 17.1985 61.924 19.0336 60.8754 20.9101C60.2545 21.9725 59.0817 22.7176 57.8399 22.7038C54.0593 22.7176 50.2788 22.7038 46.512 22.7038C45.3668 22.6348 44.3596 23.4489 43.78 24.3733C43.1316 25.4634 42.4831 26.5672 41.876 27.6848C41.6138 28.1401 41.462 28.8576 41.9588 29.2025C42.4003 29.4233 42.9246 29.3267 43.3799 29.1749C44.263 28.8576 44.9667 28.1539 45.3944 27.3398C45.9463 26.4844 46.3326 25.4634 47.2019 24.8838C47.6434 24.5665 48.1815 24.3457 48.7334 24.3457C51.5482 24.3457 54.3629 24.3457 57.1638 24.3457C57.495 24.3319 57.8951 24.3733 58.0745 24.6907C58.378 25.1598 58.1021 25.7393 57.8537 26.167C57.219 27.2295 56.6119 28.3195 55.9772 29.3819C55.4253 30.2512 54.4871 30.9686 53.4247 31.0376C45.56 31.0376 37.6815 31.0376 29.8168 31.0376C29.458 31.0652 29.0579 30.8996 28.9475 30.5409C28.8923 30.1546 28.9199 29.7544 29.1269 29.4095C31.7898 24.7735 34.4666 20.1512 37.1434 15.529C37.5711 14.8253 37.9022 14.0113 38.5231 13.4455C38.8819 13.1282 39.3234 12.8522 39.8063 12.7005ZM50.8445 14.37C50.196 14.5356 49.5613 14.8529 49.0922 15.3496C48.761 15.6946 48.5541 16.1223 48.3195 16.5224C47.7814 17.4469 47.2157 18.3575 46.7052 19.2958C46.4844 19.7097 46.305 20.234 46.5948 20.6617C46.8983 21.0481 47.4502 21.0067 47.878 20.9101C48.7472 20.648 49.5475 20.0822 50.0028 19.282C50.5409 18.3575 51.0928 17.4331 51.6309 16.5086C51.8931 16.0395 52.2242 15.5428 52.1966 14.9909C52.0863 14.3562 51.355 14.232 50.8445 14.37Z" fill="#C4161C"></path>
      </g>
      <path id="Vector_3" d="M67.8017 12.6869C68.3674 12.5352 68.9607 12.5904 69.5402 12.5904C76.8944 12.5904 84.2623 12.5904 91.6303 12.5904C92.0304 12.6041 92.541 12.6041 92.7617 13.0043C92.8859 13.4044 92.8445 13.8459 92.6237 14.2047C91.989 15.3499 91.3268 16.4813 90.6783 17.6265C90.1264 18.6062 89.0501 19.3788 87.9049 19.3374C85.1454 19.3374 82.372 19.3374 79.6125 19.3374C79.2952 19.3512 78.9502 19.2822 78.757 19.0063C78.5501 18.3578 78.7984 17.6955 79.1848 17.1712C79.5573 16.4813 80.1506 15.819 80.1368 15.005C80.0816 14.4392 79.4469 14.2461 78.964 14.3427C77.9706 14.522 77.0599 15.1429 76.5632 16.0122C74.0106 20.4137 71.4719 24.8151 68.9055 29.2028C68.395 30.1272 67.4705 30.9137 66.3943 31.0379C63.4968 31.0517 60.5855 31.0379 57.6741 31.0379C57.3706 31.0517 57.0256 30.9137 56.9153 30.6102C56.7221 30.1962 56.8739 29.7271 57.067 29.3546C59.9646 24.346 62.8483 19.3236 65.7458 14.3289C66.1873 13.5424 66.9324 12.9353 67.8017 12.6869Z" fill="#C4161C"></path>
      <path id="Vector_4" d="M96.7908 12.7006C97.3013 12.5488 97.8532 12.5902 98.3775 12.5764C105.828 12.5764 113.279 12.5764 120.744 12.5764C121.075 12.604 121.502 12.5764 121.709 12.9076C122.11 13.4043 121.765 14.039 121.502 14.5081C120.826 15.6395 120.219 16.7985 119.516 17.9023C118.922 18.7302 117.929 19.3787 116.88 19.3235C114.079 19.3097 111.265 19.3373 108.464 19.3097C107.912 19.3511 107.553 18.7578 107.691 18.2611C107.953 17.1986 108.864 16.3984 109.098 15.3222C109.222 14.8668 108.933 14.3149 108.422 14.3287C107.194 14.2597 106.077 15.1014 105.497 16.1362C103.579 19.4201 101.689 22.7315 99.7849 26.0154C99.4399 26.6639 99.026 27.2848 98.7086 27.9471C98.5155 28.361 98.5017 29.0233 98.9846 29.2303C99.6469 29.4648 100.378 29.1889 100.958 28.8439C101.468 28.5404 101.882 28.0988 102.158 27.5745C103.055 26.0292 103.966 24.4838 104.835 22.9247C105.387 21.9037 106.422 21.0758 107.608 20.9516C110.464 20.9516 113.32 20.9516 116.177 20.9516C116.577 20.924 116.935 21.2138 117.046 21.5863C117.101 21.9175 116.991 22.2348 116.839 22.5108C115.625 24.7322 114.3 26.8846 113.072 29.1061C112.548 30.1133 111.541 30.9412 110.395 31.0378C102.517 31.0378 94.6521 31.0378 86.7736 31.0378C86.3183 31.1067 85.794 30.7618 85.863 30.2651C85.794 29.6028 86.2493 29.0785 86.5529 28.5404C89.3124 23.7526 92.0857 18.9648 94.8591 14.177C95.2868 13.4733 96.0043 12.9628 96.7908 12.7006Z" fill="#C4161C"></path>
      <g id="Group_3">
        <path id="Vector_5" d="M125.476 12.6868C126.042 12.5212 126.635 12.5902 127.215 12.5764C134.583 12.5764 141.937 12.5764 149.305 12.5764C149.691 12.5764 150.147 12.5902 150.423 12.9213C150.574 13.4457 150.492 14.0252 150.188 14.4805C147.373 19.4201 144.476 24.3183 141.647 29.2578C141.068 30.3065 139.909 31.1481 138.667 31.0515C130.885 31.0377 123.117 31.0515 115.335 31.0515C114.797 31.1067 114.369 30.5272 114.493 30.0167C114.617 29.4648 114.962 29.0095 115.238 28.5266C117.874 23.9043 120.564 19.3097 123.227 14.7012C123.669 13.763 124.469 12.9903 125.476 12.6868ZM136.39 14.3839C135.59 14.6047 134.845 15.0876 134.376 15.7913C134.058 16.2604 133.796 16.7709 133.507 17.2538C131.547 20.7171 129.519 24.1527 127.546 27.6021C127.311 28.0022 127.16 28.4714 127.311 28.9267C127.477 29.313 127.946 29.3682 128.305 29.3268C129.34 29.2026 130.292 28.5542 130.788 27.6435C132.927 23.9871 135.011 20.2893 137.163 16.6329C137.466 16.0672 137.922 15.4601 137.742 14.7702C137.522 14.2459 136.859 14.2735 136.39 14.3839Z" fill="#C4161C"></path>
      </g>
    </g>
    <g id="Group_4">
      <path id="Vector_6" d="M45.3529 32.1828C45.5047 31.9896 45.615 31.6171 45.9186 31.6723C46.4153 32.3208 46.7602 33.0658 47.1742 33.7557C47.4363 34.1421 47.2294 34.6112 47.188 35.0251C48.416 35.0665 49.6578 34.9975 50.8858 35.0665C50.9133 35.1217 50.9685 35.2183 50.9961 35.2597C50.8168 35.784 50.4718 36.2531 50.1959 36.736C49.644 37.6605 49.1334 38.6125 48.5953 39.5508C48.4022 39.9095 48.0434 40.213 47.6157 40.1717C46.7878 40.1717 45.9462 40.1855 45.1183 40.1441C45.1597 39.5922 45.5184 39.1368 45.7944 38.6677C46.2497 37.9226 46.6637 37.15 47.1052 36.4049C47.2708 36.1427 47.3673 35.853 47.4363 35.5632C47.0638 35.577 46.6637 35.6874 46.4705 36.0461C45.7668 37.1913 45.0907 38.3642 44.4284 39.537C44.2215 39.8681 43.9041 40.213 43.4764 40.1717C42.6485 40.1717 41.8207 40.1855 40.9928 40.1579C41.0342 39.9509 41.0342 39.7301 41.1308 39.537C42.5105 37.0672 43.9593 34.6388 45.3529 32.1828Z" fill="#003472"></path>
      <g id="Group_5">
        <path id="Vector_7" d="M113.803 32.169C113.927 31.9344 114.107 31.7413 114.314 31.5757C114.824 32.2932 115.252 33.0658 115.694 33.8247C116.011 34.28 115.625 34.7768 115.418 35.1769C114.603 36.5291 113.817 37.895 113.044 39.2748C112.81 39.7025 112.465 40.2131 111.913 40.1717C109.705 40.1579 107.498 40.1993 105.29 40.1579C105.318 39.8819 105.359 39.5922 105.525 39.3576C106.27 38.1296 106.932 36.8326 107.705 35.6184C107.898 35.3701 108.105 35.0527 108.45 35.0665C109.498 35.0389 110.561 35.0803 111.623 35.0527C111.996 35.0527 112.313 34.7768 112.506 34.4732C112.975 33.7143 113.375 32.9417 113.803 32.169ZM110.809 35.9358C110.216 36.8326 109.705 37.7847 109.153 38.7091C108.974 38.9851 108.85 39.3024 108.795 39.6335C109.057 39.5922 109.374 39.6198 109.554 39.3852C110.036 38.8333 110.34 38.1572 110.726 37.5363C111.071 36.874 111.554 36.2807 111.706 35.5494C111.375 35.5908 111.002 35.6322 110.809 35.9358Z" fill="#003472"></path>
      </g>
      <path id="Vector_8" d="M13.2042 33.5487C13.5216 33.0382 13.77 32.2379 14.4874 32.2517C15.7016 32.2655 16.9296 32.1827 18.13 32.3207C17.8403 32.7346 17.316 32.7484 16.9158 32.983C16.5985 33.2314 16.4605 33.6315 16.2811 33.9764C16.5571 34.0868 16.8192 34.1972 17.0952 34.2938C16.7365 34.5145 16.3087 34.5973 15.9224 34.7767C15.5085 35.1078 15.3153 35.646 15.0393 36.0875C13.8803 38.0192 12.8041 40.006 11.6451 41.9377C11.2864 42.5034 11.0794 43.1795 10.5551 43.6072C10.017 42.876 9.57545 42.0619 9.13392 41.2754C8.92696 40.9443 9.13392 40.5717 9.29949 40.2682C10.6241 38.0468 11.8935 35.7839 13.2042 33.5487Z" fill="#003472"></path>
      <path id="Vector_9" d="M52.5414 33.5489C52.8726 33.0521 53.1071 32.2795 53.8108 32.2519C54.6801 32.2381 55.5493 32.2105 56.4186 32.2795C56.3082 32.8866 55.9357 33.3833 55.6597 33.9352C55.9081 34.0732 56.1702 34.1835 56.4186 34.3353C56.0461 34.5147 55.6183 34.5837 55.2596 34.7906C54.9422 35.0252 54.7767 35.3977 54.5835 35.7289C53.4107 37.8261 52.1689 39.882 50.9961 41.9793C50.6512 42.545 50.4028 43.1797 49.8785 43.6212C49.3956 42.9727 49.0506 42.2276 48.6229 41.5377C48.3883 41.2066 48.3883 40.7513 48.5953 40.4201C49.8785 38.1021 51.2583 35.8531 52.5414 33.5489Z" fill="#003472"></path>
      <path id="Vector_10" d="M62.4068 32.3899C62.7104 32.1691 63.1105 32.2519 63.4555 32.2381C64.4213 32.2657 65.3871 32.1967 66.353 32.2795C66.3668 32.3347 66.4082 32.4588 66.4358 32.514C66.146 32.6934 65.8011 32.7486 65.4837 32.8728C65.0836 33.0935 64.9042 33.5489 64.6834 33.9214C64.9456 34.0456 65.2078 34.1698 65.4561 34.2939C64.9732 34.6113 64.2419 34.5837 63.9384 35.1632C62.8346 37.1225 61.6617 39.0542 60.5579 41.0272C60.0198 41.8827 59.6059 42.8209 58.9574 43.6074C58.4883 43.1245 58.2399 42.476 57.8674 41.9103C57.6466 41.5101 57.2465 41.0686 57.5086 40.5995C58.8608 38.1435 60.3234 35.7565 61.6893 33.3143C61.8963 32.9832 62.0757 32.6244 62.4068 32.3899Z" fill="#003472"></path>
      <path id="Vector_11" d="M131.713 35.2044C132.003 34.9837 132.375 35.0526 132.72 35.0389C134.79 35.0526 136.873 35.0113 138.943 35.0526C138.86 35.7425 138.446 36.4048 137.894 36.8188C136.928 37.0257 135.921 36.9429 134.955 36.8326C135.079 36.4048 135.286 35.9909 135.424 35.5632C134.472 35.4942 134.086 36.529 133.796 37.2603C135.066 37.4948 136.349 37.2879 137.632 37.3845C137.494 38.1157 137.025 38.709 136.68 39.3437C136.445 39.7163 136.142 40.1992 135.631 40.1716C133.603 40.1854 131.575 40.1716 129.547 40.1716C129.312 40.144 128.939 40.2682 128.912 39.937C129.064 39.4679 129.34 39.0402 129.643 38.6539C129.947 38.2675 130.471 38.2399 130.926 38.2537C131.602 38.2813 132.292 38.1847 132.955 38.3641C132.803 38.7918 132.61 39.192 132.485 39.6197C132.679 39.6059 132.872 39.6059 133.065 39.5645C133.575 39.1644 133.838 38.5297 134.114 37.9502C132.844 37.6742 131.533 37.9226 130.25 37.7846C130.374 37.1775 130.747 36.6808 131.037 36.1427C131.244 35.8253 131.409 35.4528 131.713 35.2044Z" fill="#003472"></path>
      <path id="Vector_12" d="M15.7154 35.7703C15.9223 35.4254 16.2259 34.9976 16.6812 35.039C18.9302 35.039 21.1655 35.0114 23.4145 35.0528C23.3041 35.6323 23.0144 36.1705 22.628 36.612C22.3935 36.8879 22.0071 36.8879 21.676 36.9155C20.9033 36.9293 20.1306 36.9431 19.358 36.8189C19.5373 36.405 19.7443 36.0049 19.8547 35.5634C19.4683 35.5496 19.0544 35.6599 18.8612 36.0187C18.13 37.1915 17.5091 38.4195 16.764 39.5785C16.557 39.8268 16.3363 40.1442 15.9775 40.1442C15.1083 40.158 14.239 40.1718 13.356 40.1304C13.4111 39.8268 13.5077 39.5233 13.6733 39.2611C14.3494 38.1021 15.0531 36.9431 15.7154 35.7703Z" fill="#003472"></path>
      <g id="Group_6">
        <path id="Vector_13" d="M23.4697 35.9358C23.6629 35.5909 23.8975 35.2183 24.2838 35.0666C25.0151 34.9976 25.7601 35.0528 26.4914 35.039C28.092 35.0528 29.7063 34.9976 31.3068 35.0666C31.1137 35.8116 30.6307 36.4325 30.272 37.0948C30.0926 37.3846 29.8857 37.7709 29.4993 37.8123C28.4093 37.8675 27.3055 37.7985 26.2155 37.8399C25.3462 37.9227 25.0289 38.9161 24.7667 39.6198C24.9737 39.5922 25.2082 39.6198 25.4152 39.5232C25.8981 39.1231 26.0775 38.3366 26.795 38.2676C27.6642 38.2262 28.5473 38.171 29.4027 38.3366C29.2234 39.0403 28.8508 39.8682 28.1196 40.1303C25.8291 40.1579 23.5387 40.1717 21.2483 40.1165C21.2759 39.7992 21.3725 39.4956 21.538 39.2335C22.2141 38.171 22.835 37.0534 23.4697 35.9358ZM27.0019 35.7426C26.5604 36.1566 26.2983 36.7085 26.0775 37.2604C26.3396 37.2466 26.6708 37.3432 26.864 37.1224C27.3055 36.7085 27.5676 36.1428 27.747 35.5771C27.4849 35.6047 27.1951 35.5633 27.0019 35.7426Z" fill="#003472"></path>
      </g>
      <path id="Vector_14" d="M31.5828 35.6324C31.7622 35.3426 32.0381 35.0391 32.4245 35.0391C33.2937 35.0253 34.163 35.0253 35.0322 35.0529C34.977 35.384 34.8667 35.7014 34.6873 35.9773C33.9836 37.1639 33.2661 38.3505 32.6038 39.5509C32.4245 39.8683 32.1209 40.1442 31.7484 40.1442C30.9205 40.1442 30.0926 40.1718 29.2786 40.1304C29.0854 39.8959 29.3062 39.6061 29.4166 39.3854C30.134 38.1436 30.8101 36.8742 31.5828 35.6324Z" fill="#003472"></path>
      <path id="Vector_15" d="M35.2254 35.8394C35.4461 35.453 35.7635 35.0115 36.2602 35.0391C38.2471 35.0253 40.2339 35.0391 42.2208 35.0391C42.4968 35.0253 42.7589 35.0667 43.0073 35.1495C42.7865 35.66 42.5519 36.1705 42.1932 36.612C41.9724 36.9018 41.5723 36.8742 41.255 36.9294C40.4823 36.957 39.7096 36.957 38.9507 36.8328C39.0887 36.4051 39.2957 36.0049 39.4475 35.591C38.9783 35.5082 38.5368 35.7566 38.3298 36.1843C37.6951 37.3157 36.9639 38.4195 36.4534 39.6199C36.7017 39.5923 37.0053 39.6751 37.1846 39.4682C37.8193 38.8887 37.9573 37.8952 38.7162 37.4261C39.682 37.3157 40.6755 37.3571 41.6551 37.4123C41.4343 38.2678 40.841 38.9438 40.4547 39.7165C39.6682 41.0135 39.0197 42.3933 38.1367 43.6213C37.6814 43.2625 37.4744 42.6968 37.1846 42.2139C36.9915 41.8552 36.7431 41.5378 36.6189 41.1515C36.5913 40.8341 36.6603 40.503 36.6741 40.1856C35.4185 40.158 34.1629 40.2132 32.9211 40.158C32.9901 39.5647 33.3489 39.068 33.6524 38.5713C34.1905 37.6607 34.7148 36.75 35.2254 35.8394Z" fill="#003472"></path>
      <path id="Vector_16" d="M64.6421 35.177C64.8905 34.9839 65.2354 35.0529 65.5252 35.0391C67.6362 35.0667 69.7473 35.0115 71.8583 35.0667C71.748 35.4392 71.61 35.7979 71.3892 36.1291C70.6717 37.3019 70.0508 38.5437 69.292 39.7027C69.085 40.0476 68.6711 40.1994 68.2847 40.158C66.1185 40.1304 63.9523 40.1994 61.786 40.1304C61.8274 39.5647 62.1861 39.1232 62.4621 38.6541C62.9588 37.8538 63.4003 37.0259 63.8695 36.2119C64.104 35.8393 64.2972 35.4392 64.6421 35.177Z" fill="#003472"></path>
      <path id="Vector_17" d="M72.3412 35.5632C72.5206 35.2458 72.8655 34.9975 73.2519 35.0389C75.4595 35.0526 77.6809 35.0113 79.9024 35.0526C79.8334 35.7425 79.4332 36.4186 78.8537 36.805C77.8741 37.0119 76.8393 36.9291 75.8458 36.8188C76.0114 36.391 76.2046 35.9909 76.3564 35.5632C75.9838 35.5494 75.5975 35.6459 75.4043 35.9909C74.6454 37.1775 73.9831 38.4331 73.2381 39.6335C73.0587 39.9094 72.7827 40.1578 72.4378 40.144C71.6099 40.144 70.7683 40.1716 69.9404 40.1302C69.8162 39.868 69.9956 39.6197 70.106 39.3989C70.8511 38.1295 71.5547 36.8188 72.3412 35.5632Z" fill="#003472"></path>
      <path id="Vector_18" d="M79.4884 36.2394C79.7781 35.7978 79.9713 35.1493 80.5646 35.0528C81.4752 35.0114 82.3859 35.0252 83.2965 35.0665C83.1999 35.3701 83.1034 35.6874 82.9378 35.9634C82.3859 36.9292 81.8478 37.8951 81.2683 38.8333C81.1165 39.0679 81.0337 39.3438 80.9923 39.6198C81.4752 39.6888 81.8616 39.3714 82.0823 38.9575C82.7446 37.8261 83.3517 36.6395 84.0554 35.5357C84.221 35.2735 84.4969 35.0252 84.8281 35.039C85.6973 35.0252 86.5804 35.0114 87.4496 35.0665C87.2979 35.853 86.7598 36.4877 86.3872 37.1914C85.9457 37.9917 85.38 38.7367 85.0902 39.6198C85.4076 39.6198 85.7939 39.6198 85.9871 39.3024C86.5942 38.447 87.0495 37.5087 87.5738 36.6119C87.8636 36.1428 88.0705 35.5771 88.5121 35.2183C88.7604 35.0114 89.0778 35.039 89.3675 35.039C90.1126 35.0527 90.8577 35.0252 91.6028 35.0665C91.4924 35.6599 91.1198 36.1704 90.8301 36.6809C90.2644 37.6053 89.7539 38.5712 89.202 39.4956C88.995 39.8268 88.6776 40.1717 88.2637 40.1441C85.6559 40.1579 83.0482 40.1441 80.4404 40.1441C79.9989 39.3024 79.4608 38.516 79.0054 37.6881C78.8261 37.1638 79.24 36.6809 79.4884 36.2394Z" fill="#003472"></path>
      <g id="Group_7">
        <path id="Vector_19" d="M91.3406 36.819C91.6166 36.1705 91.9063 35.3702 92.5824 35.0667C94.9004 35.0253 97.2322 35.0253 99.5502 35.0667C99.4812 35.384 99.3847 35.6876 99.2191 35.9635C98.5568 37.1363 97.8531 38.2816 97.1908 39.4544C96.9839 39.8269 96.6527 40.2132 96.1698 40.1718C93.9484 40.158 91.7131 40.2132 89.4917 40.1442C89.6159 39.4544 90.0574 38.8887 90.3748 38.2954C90.5817 37.9504 90.8163 37.5089 91.2302 37.3985C92.3616 37.3157 93.5068 37.4261 94.6383 37.3433C95.4385 37.1639 95.7421 36.2671 96.018 35.591C95.7421 35.6048 95.3971 35.5634 95.204 35.8118C94.8314 36.1705 94.6658 36.8328 94.0725 36.888C93.1757 36.9708 92.2512 36.957 91.3406 36.819ZM94.0587 37.9504C93.7276 38.185 93.5344 38.5575 93.3275 38.8887C93.2171 39.1094 92.9963 39.344 93.1205 39.6199C93.3413 39.6061 93.6034 39.6337 93.769 39.4544C94.2243 39.0542 94.4865 38.4609 94.7072 37.909C94.4865 37.909 94.2657 37.909 94.0587 37.9504Z" fill="#003472"></path>
      </g>
      <path id="Vector_20" d="M99.8814 35.6322C100.075 35.2872 100.433 34.9975 100.847 35.0389C103.055 35.0526 105.263 35.0113 107.47 35.0526C107.387 35.7425 107.001 36.4186 106.435 36.8188C105.469 37.0257 104.462 36.9567 103.483 36.8188C103.634 36.391 103.841 35.9909 103.952 35.5494C103.579 35.5494 103.207 35.6597 103 35.9909C102.393 36.8877 101.91 37.8536 101.358 38.778C101.109 39.192 100.902 39.6749 100.516 39.9784C100.268 40.1854 99.9228 40.144 99.633 40.1578C98.9018 40.144 98.1705 40.1854 97.4392 40.1164C97.5772 39.4265 98.0325 38.8608 98.3775 38.2537C98.888 37.3983 99.3709 36.5014 99.8814 35.6322Z" fill="#003472"></path>
      <g id="Group_8">
        <path id="Vector_21" d="M115.459 35.7702C115.611 35.5081 115.804 35.2735 116.066 35.0941C116.37 35.0252 116.687 35.0528 117.004 35.039C119.06 35.0528 121.102 35.0114 123.144 35.0666C123.062 35.7012 122.648 36.2118 122.344 36.7637C122.096 37.1638 121.861 37.6743 121.378 37.8123C120.288 37.8813 119.198 37.7985 118.108 37.8537C117.225 37.9227 116.853 38.9161 116.632 39.6336C116.88 39.5922 117.17 39.6612 117.363 39.468C117.805 39.0817 117.984 38.3366 118.674 38.2952C119.543 38.2538 120.426 38.1848 121.282 38.3642C121.144 38.9161 120.854 39.4128 120.509 39.8682C120.192 40.2407 119.667 40.1717 119.226 40.1717C117.184 40.1441 115.142 40.2131 113.113 40.1441C113.182 39.8682 113.238 39.5922 113.376 39.3576C114.052 38.1434 114.755 36.9568 115.459 35.7702ZM118.798 35.7978C118.398 36.2118 118.136 36.7361 117.984 37.288C118.232 37.2604 118.536 37.3294 118.715 37.1224C119.143 36.7085 119.391 36.1428 119.612 35.5909C119.336 35.6047 119.005 35.5495 118.798 35.7978Z" fill="#003472"></path>
      </g>
      <path id="Vector_22" d="M123.848 35.1907C124.193 34.97 124.607 35.0389 125.007 35.0251C127.035 35.0527 129.064 34.9976 131.092 35.0527C130.995 35.6184 130.706 36.129 130.347 36.5843C130.14 36.874 129.754 36.874 129.436 36.9154C128.65 36.943 127.863 36.9568 127.091 36.8326C127.242 36.4049 127.436 35.991 127.56 35.5633C127.187 35.5633 126.801 35.6598 126.594 35.991C125.821 37.1776 125.2 38.4608 124.441 39.6612C124.248 39.9233 123.972 40.1993 123.627 40.1579C122.772 40.1579 121.916 40.1855 121.061 40.1303C121.158 39.4818 121.558 38.9713 121.875 38.4194C122.386 37.5501 122.896 36.6809 123.379 35.8116C123.503 35.5909 123.641 35.3563 123.848 35.1907Z" fill="#003472"></path>
    </g>
  </g>
  <defs>
    <clipPath id="clip0_890_7228">
      <rect width="150.533" height="43.1868" fill="white" transform="translate(0 0.406494)"></rect>
    </clipPath>
  </defs>
</svg>
