<?xml version="1.0" encoding="UTF-8"?>
<svg xmlns="http://www.w3.org/2000/svg" width="100" height="100" viewBox="0 0 100 100" fill="none">
  <rect width="100" height="100" rx="25" fill="#175CFF"></rect>
  <g clip-path="url(#clip0_1714_35862)">
    <path d="M42.2549 22.5668C46.1527 19.8001 51.4831 19.2335 55.914 21.0335C59.8784 22.6668 63.0433 26.0335 64.6758 30.0001C66.3082 33.7668 66.8079 37.9335 66.708 42.0001C66.4748 44.4335 66.1416 46.9001 66.1749 49.3335C67.9073 49.4668 69.6397 50.5668 69.9395 52.3668C70.206 54.3335 70.0061 56.3001 70.0394 58.2668C72.7046 59.6001 74.9034 61.8668 75.9362 64.7001C76.9689 67.3001 76.6691 70.1668 76.7024 72.9001C77.7352 73.0668 79.5008 72.3668 79.9339 73.6668C80.0006 75.5335 80.0006 77.4335 79.9339 79.3335C79.8673 79.9335 79.1344 80.0001 78.668 80.0001C59.5786 80.0001 40.4559 80.0001 21.3332 80.0001C20.7335 80.0668 19.9006 79.8001 20.0339 79.0335C20.0672 77.1668 19.9006 75.2668 20.1338 73.4001C20.8334 72.5001 22.2993 73.0668 23.2987 72.9001C23.3987 70.2335 22.9323 67.4335 23.9317 64.8668C24.9645 61.9335 27.2299 59.6001 29.9284 58.2001C29.995 56.1668 29.7285 54.1001 30.095 52.0668C30.628 50.0668 32.8268 49.2001 34.759 49.3668C34.859 45.3335 33.7263 41.3335 34.3259 37.3001C34.9256 31.6668 37.4242 25.8335 42.2549 22.5668ZM42.8545 24.4668C38.7235 27.5001 36.7579 32.6668 36.1916 37.6335C35.5919 41.5668 36.6913 45.4668 36.658 49.4001C38.1238 49.4001 39.5897 49.4001 41.0555 49.4001C38.9567 45.6668 38.3237 41.2335 38.8568 37.0335C38.8901 36.2668 39.7229 36.1001 40.3559 36.0335C42.8879 35.7001 45.4531 35.3335 47.8851 34.5001C49.7507 33.9001 51.683 33.2001 53.1155 31.8001C53.5153 31.4668 53.9484 30.8668 54.548 31.1335C55.5475 31.6335 56.3137 32.5335 57.2799 33.0668C58.2127 33.7001 59.3121 33.9668 60.3115 34.3668C60.7113 34.5001 60.7779 35.0001 60.8779 35.3335C61.9106 40.0668 61.2443 45.1335 58.9456 49.4001C60.7446 49.4001 62.5436 49.4001 64.3093 49.4001C64.3093 46.9335 64.5758 44.4668 64.8423 42.0001C64.9756 37.7001 64.3093 33.2668 62.2771 29.4001C60.6447 26.2001 57.7796 23.6668 54.3815 22.5001C50.517 21.2668 46.0528 21.9668 42.8545 24.4668ZM47.4187 36.7335C45.1866 37.2335 42.9212 37.8001 40.6225 38.0001C40.3226 41.9335 40.9556 46.1335 43.2876 49.4335C47.7518 49.3668 52.1827 49.4335 56.6469 49.4001C59.1122 45.4335 59.7785 40.5668 58.9123 36.0335C57.1466 35.5668 55.5808 34.6335 54.2149 33.4335C52.2826 35.1001 49.8507 36.0335 47.4187 36.7335ZM31.8273 53.3335C31.8273 59.8668 31.8273 66.4001 31.8273 72.9001C43.9539 72.9001 56.0805 72.9001 68.1738 72.9001C68.1738 66.3668 68.1738 59.8335 68.1738 53.3001C68.2404 52.1335 67.1411 51.1668 66.0083 51.3001C55.2143 51.3335 44.4203 51.3001 33.6597 51.3001C32.6269 51.3335 31.7274 52.3001 31.8273 53.3335ZM25.1977 67.9668C25.1644 69.6001 25.1977 71.2335 25.1977 72.9001C26.7968 72.9001 28.3959 72.9001 29.9617 72.9001C29.9617 68.7668 29.9617 64.6335 29.9617 60.4668C27.2965 62.0335 25.3643 64.8668 25.1977 67.9668ZM70.0728 60.4001C70.0728 64.5668 70.0728 68.7335 70.0728 72.9001C71.6719 72.9001 73.271 72.9335 74.8701 72.8668C74.8035 71.0335 74.97 69.1668 74.7035 67.3335C74.3037 64.4668 72.5714 61.8335 70.0728 60.4001ZM21.8995 74.7335C21.8995 75.8668 21.8995 77.0001 21.8995 78.1668C40.6225 78.1668 59.3787 78.1668 78.1016 78.1668C78.1016 77.0335 78.1016 75.9001 78.1016 74.7668C59.3787 74.8335 40.6225 74.8335 21.8995 74.7335Z" fill="white"></path>
    <path d="M47.9637 66.8649C47.5829 66.7999 47.4523 66.6158 47.6046 66.2259C48.1269 64.8394 48.6273 63.4422 49.1278 62.0449C49.7044 60.4635 50.281 58.8821 50.8576 57.3115C50.8902 57.2141 50.9337 57.1057 50.9664 57.0083C51.0752 56.7266 51.2819 56.5967 51.5647 56.705C51.8585 56.8133 51.8694 57.0516 51.7606 57.3224C51.2384 58.7088 50.7379 60.1061 50.2375 61.5033C49.65 63.1172 49.0734 64.7311 48.475 66.345C48.388 66.5725 48.3662 66.9083 47.9637 66.8649Z" fill="white"></path>
    <path d="M46.2875 64.3413C46.1134 64.3197 45.9828 64.2222 45.8523 64.1247C45.0798 63.4748 44.3074 62.8249 43.5241 62.1858C43.1868 61.9042 43.1651 61.6443 43.5132 61.3518C44.3074 60.7019 45.1016 60.0412 45.8849 59.3805C46.1243 59.1747 46.3636 59.1205 46.5812 59.3913C46.8205 59.6838 46.6356 59.8787 46.4071 60.0629C45.8088 60.5611 45.2213 61.0594 44.612 61.5468C44.4053 61.7201 44.3944 61.8176 44.612 61.9909C45.2322 62.4891 45.8414 62.9982 46.4506 63.5073C46.603 63.6373 46.7553 63.7781 46.6682 64.0055C46.6138 64.1897 46.4833 64.298 46.2875 64.3413Z" fill="white"></path>
    <path d="M56.1016 61.7529C56.1234 61.937 56.0037 62.0453 55.884 62.1536C55.0681 62.836 54.2521 63.5076 53.4362 64.19C53.2186 64.3741 52.9901 64.4282 52.7834 64.1683C52.5767 63.9083 52.6746 63.7025 52.8922 63.5184C53.5014 63.0093 54.0998 62.5002 54.7199 62.002C54.9593 61.807 54.9484 61.6987 54.7199 61.5254C54.1324 61.0596 53.5558 60.5722 52.9684 60.0848C52.7399 59.8898 52.5005 59.6949 52.7834 59.3699C53.0445 59.0775 53.2839 59.2075 53.5341 59.4133C54.3065 60.0631 55.0898 60.7022 55.8514 61.3521C55.9711 61.4496 56.1125 61.5471 56.1016 61.7529Z" fill="white"></path>
  </g>
  <defs>
    <clipPath id="clip0_1714_35862">
      <rect width="60" height="60" fill="white" transform="translate(20 20)"></rect>
    </clipPath>
  </defs>
</svg>
