<?xml version="1.0" encoding="UTF-8"?>
<svg xmlns="http://www.w3.org/2000/svg" width="181" height="48" viewBox="0 0 181 48" fill="none">
  <g id="Homedelivery" clip-path="url(#clip0_890_7158)">
    <g id="Group">
      <path id="Vector" d="M23.2274 0.297242C27.0247 -0.252603 30.955 -0.0594143 34.6489 1.01055C40.0568 2.51148 44.9622 5.76597 48.4936 10.1647C52.8671 15.5592 55.0834 22.6477 54.6106 29.5876C54.3742 32.6044 53.7093 35.5914 52.5421 38.3703C52.3648 38.7715 52.217 39.2025 51.9658 39.574L51.6851 39.6335C52.2761 37.657 52.7341 35.6359 52.8671 33.5852C53.2217 29.0378 52.3648 24.3864 50.3701 20.2849C48.331 16.0347 45.0804 12.3641 41.1206 9.82294C36.555 6.86566 31.0289 5.4539 25.6211 5.85514C20.5826 6.18207 15.6476 8.0991 11.673 11.2347C6.01397 15.6335 2.34965 22.5288 1.90638 29.7214C1.6552 33.065 2.05414 36.4533 3.11797 39.6335C2.83724 39.6781 2.58605 39.6186 2.52695 39.3065C-0.339498 33.1096 -0.797539 25.8279 1.28581 19.3189C2.97022 13.8799 6.38336 8.99074 10.9194 5.55792C14.4951 2.79384 18.78 0.995694 23.2274 0.297242Z" fill="#1174B7"></path>
      <path id="Vector_2" d="M62.1902 7.80182C62.8699 7.80182 63.5495 7.71266 64.2292 7.8464C64.3474 8.03959 64.3326 8.2625 64.3326 8.48541C64.3326 9.46622 64.3326 10.4619 64.3326 11.4427C65.8988 10.239 68.4993 10.343 69.7109 12.0074C70.2724 12.7801 70.4645 13.7758 70.4497 14.7269C70.4497 16.421 70.4497 18.13 70.4497 19.8241C69.7405 19.943 69.0017 19.9281 68.2777 19.839C68.2186 18.13 68.2777 16.421 68.2482 14.712C68.2482 14.0433 68.0117 13.33 67.4503 12.9436C66.741 12.4829 65.7954 12.5127 65.0862 12.9585C64.5838 13.33 64.3326 13.9541 64.3326 14.5634C64.2883 16.213 64.3326 17.8476 64.3179 19.4972C64.3179 19.6606 64.2588 19.9133 64.0519 19.8836C63.4461 19.8984 62.8255 19.9281 62.2197 19.8538C62.072 19.6606 62.1015 19.408 62.1015 19.1851C62.1163 15.6185 62.1015 12.052 62.1015 8.48541C62.1015 8.23278 62.1459 8.02473 62.1902 7.80182Z" fill="#1174B7"></path>
      <g id="Group_2">
        <path id="Vector_3" d="M75.4438 10.7147C76.9066 10.4473 78.5171 10.7891 79.6253 11.8144C80.4379 12.6021 80.9846 13.7166 80.9994 14.8609C81.0733 15.9457 80.9255 17.0751 80.2754 17.9816C78.8274 20.3147 75.2074 20.716 73.2127 18.8584C71.6613 17.4021 71.3953 14.9203 72.2966 13.0479C72.9172 11.8293 74.114 10.9377 75.4438 10.7147ZM76.1235 12.6169C75.6211 12.7061 75.0892 12.8844 74.7493 13.2856C74.0253 14.0584 73.9367 15.2175 74.1435 16.2132C74.3061 17.0157 74.9119 17.7439 75.7245 17.9519C76.9657 18.3383 78.3841 17.4912 78.6944 16.2281C78.8865 15.3216 78.8717 14.2664 78.2659 13.5086C77.7783 12.8547 76.9213 12.5278 76.1235 12.6169Z" fill="#1174B7"></path>
      </g>
      <path id="Vector_4" d="M82.536 11.2942C82.536 11.101 82.5507 10.7444 82.8315 10.7741C83.4373 10.7444 84.0578 10.7741 84.6636 10.7741C84.708 10.9821 84.7375 11.205 84.7671 11.4131C86.0525 10.3877 87.9881 10.358 89.3475 11.2645C89.6725 11.4725 89.8942 11.8143 90.2045 12.0372C90.6773 11.5468 91.2092 11.0862 91.8741 10.8633C93.1005 10.4323 94.5632 10.5958 95.6123 11.3685C96.5431 12.0818 97.0012 13.2707 96.9864 14.415C96.9864 16.0496 96.9864 17.6843 96.9864 19.319C96.9569 19.4973 97.016 19.7648 96.8091 19.8391C96.159 19.8985 95.5089 19.8688 94.844 19.8391C94.6667 18.5759 94.7996 17.2979 94.7553 16.0348C94.711 15.1134 94.9474 14.088 94.3711 13.2855C93.6028 12.2899 91.815 12.3493 91.1649 13.449C90.9285 13.8205 90.8398 14.2663 90.8398 14.6973C90.825 16.4063 90.8546 18.1004 90.825 19.8094C90.101 19.8985 89.377 19.8985 88.653 19.8094C88.6087 18.0558 88.653 16.3023 88.6383 14.5636C88.6383 13.9246 88.3575 13.2707 87.8256 12.914C87.1164 12.4682 86.156 12.4979 85.4615 12.9735C84.9887 13.345 84.7671 13.9543 84.7375 14.5487C84.6636 16.3171 84.8114 18.1004 84.6636 19.8688C83.9692 19.8688 83.2747 19.958 82.5951 19.8391C82.5064 19.6311 82.5212 19.4081 82.5212 19.1852C82.536 16.5549 82.536 13.9246 82.536 11.2942Z" fill="#1174B7"></path>
      <g id="Group_3">
        <path id="Vector_5" d="M101.212 10.8781C102.542 10.4472 104.079 10.5363 105.305 11.2794C106.295 11.8887 106.99 12.9438 107.182 14.1029C107.329 14.7716 107.255 15.4552 107.255 16.124C107.108 16.1834 106.945 16.228 106.783 16.2428C104.729 16.2726 102.66 16.1983 100.606 16.2874C100.769 16.7481 100.932 17.2236 101.316 17.5357C101.995 18.145 103.044 18.2639 103.857 17.8924C104.3 17.6992 104.552 17.2682 104.803 16.8818C105.497 16.8967 106.206 16.8373 106.901 16.9116C107.019 17.0453 107.049 17.1791 106.99 17.3277C106.517 18.5908 105.394 19.6013 104.079 19.8986C103.059 20.1215 101.951 20.0769 100.976 19.6608C99.7347 19.1555 98.8039 17.9964 98.5084 16.7035C98.2129 15.5741 98.3015 14.3555 98.7152 13.2707C99.1437 12.1561 100.075 11.2496 101.212 10.8781ZM101.951 12.706C101.271 12.9586 100.754 13.5976 100.68 14.3258C102.114 14.3258 103.547 14.3407 104.98 14.3258C104.847 12.9289 103.163 12.2007 101.951 12.706Z" fill="#1174B7"></path>
      </g>
      <path id="Vector_6" d="M87.4267 22.7665C88.136 22.4545 89.0668 22.9003 89.2294 23.673C89.4805 24.5349 88.7418 25.5306 87.8405 25.382C86.9096 25.4266 86.3038 24.2972 86.6732 23.4947C86.8209 23.1678 87.0869 22.8854 87.4267 22.7665Z" fill="#1174B7"></path>
      <g id="Group_4">
        <path id="Vector_7" d="M68.8539 23.1234C69.4745 23.1531 70.095 23.0788 70.7008 23.168C70.819 23.3463 70.819 23.5692 70.819 23.7773C70.819 27.3884 70.819 31.0144 70.819 34.6256C70.819 34.8336 70.7747 35.0565 70.7304 35.2646C70.0655 35.2794 69.4154 35.2646 68.7505 35.2794C68.5584 34.9971 68.5731 34.6702 68.5731 34.3432C67.598 35.22 66.2091 35.6212 64.9236 35.3092C63.6086 35.0565 62.5004 34.0906 61.9537 32.8869C61.1115 30.9698 61.3922 28.4732 63.0028 27.0466C64.5247 25.6497 67.0365 25.6646 68.5731 27.0318C68.5879 25.7983 68.5732 24.5798 68.5879 23.3463C68.6618 23.2869 68.78 23.1828 68.8539 23.1234ZM65.4703 28.0869C64.6133 28.3395 63.9632 29.1271 63.8302 30.0188C63.7416 30.8064 63.7563 31.6832 64.2439 32.3519C64.9088 33.4664 66.5341 33.7339 67.5684 32.9612C68.7357 32.0695 68.8982 30.2268 68.1299 29.0231C67.5832 28.1612 66.4307 27.7748 65.4703 28.0869Z" fill="#1174B7"></path>
      </g>
      <path id="Vector_8" d="M82.7724 23.1382C83.4225 23.1531 84.0726 23.0936 84.7227 23.1679C84.8705 23.3314 84.8557 23.5692 84.8705 23.7772C84.8557 27.537 84.8705 31.2967 84.8705 35.0565C84.8262 35.1159 84.708 35.2348 84.6636 35.2794C84.0283 35.2794 83.4077 35.2794 82.7724 35.2794C82.7133 35.0713 82.6542 34.8484 82.6542 34.6255C82.6542 31.0144 82.6542 27.3884 82.6542 23.7772C82.6542 23.5543 82.7133 23.3463 82.7724 23.1382Z" fill="#1174B7"></path>
      <g id="Group_5">
        <path id="Vector_9" d="M125.666 23.1382C126.257 23.1233 126.833 23.1233 127.424 23.1233C127.513 23.1976 127.587 23.2719 127.675 23.3611C127.675 24.5945 127.675 25.8131 127.675 27.0465C129.256 25.5902 131.975 25.6645 133.467 27.2248C135.314 29.2013 135.181 32.7679 133.053 34.4917C131.532 35.7549 129.138 35.7103 127.675 34.3728C127.675 34.6106 127.675 34.8484 127.675 35.0861C127.114 35.4725 126.36 35.1902 125.725 35.2793C125.651 35.2347 125.518 35.1307 125.444 35.0861C125.429 31.1926 125.444 27.2843 125.444 23.3908C125.503 23.3313 125.607 23.1976 125.666 23.1382ZM129.448 28.0719C127.409 28.6366 127.069 31.7276 128.68 32.9462C129.522 33.6001 130.793 33.5704 131.591 32.8719C132.787 31.8168 132.861 29.6768 131.679 28.592C131.074 28.0422 130.217 27.8638 129.448 28.0719Z" fill="#1174B7"></path>
      </g>
      <g id="Group_6">
        <path id="Vector_10" d="M74.04 26.8235C75.2959 25.9319 76.9803 25.7536 78.4283 26.2588C79.6547 26.6749 80.6447 27.7152 80.9993 28.9783C81.2652 29.8254 81.2357 30.717 81.1323 31.5938C78.9455 31.5938 76.7587 31.5938 74.5572 31.5938C74.7049 32.7232 75.7983 33.5554 76.9065 33.4663C77.6452 33.4514 78.384 33.0353 78.6648 32.3071C79.4183 32.1734 80.231 32.1288 80.9845 32.3517C80.8663 33.1096 80.3935 33.7635 79.8468 34.2836C77.9555 36.0372 74.5572 35.6954 73.1092 33.5406C71.735 31.5047 72.0158 28.3393 74.04 26.8235ZM74.5719 29.6619C76.0347 29.6917 77.4975 29.6768 78.9455 29.6619C78.8125 29.1567 78.5909 28.6217 78.1181 28.3393C77.527 27.8935 76.7292 27.8786 76.0347 28.0124C75.2959 28.2502 74.7936 28.9338 74.5719 29.6619Z" fill="#1174B7"></path>
      </g>
      <path id="Vector_11" d="M87.0572 26.1104C87.6335 26.1104 88.2097 26.1104 88.7712 26.1104C88.8303 26.1549 88.9485 26.259 89.0076 26.3184C89.0224 29.1419 89.0076 31.9655 89.0076 34.789C89.0224 34.997 88.9485 35.3091 88.6825 35.2794C88.1211 35.2943 87.5596 35.3091 86.9981 35.2794C86.6878 35.0862 86.8356 34.6552 86.7765 34.3432C86.8208 31.6831 86.7617 29.0082 86.806 26.3481C86.8799 26.2738 86.9981 26.1698 87.0572 26.1104Z" fill="#1174B7"></path>
      <g id="Group_7">
        <path id="Vector_12" d="M101.67 26.6749C103.163 25.7535 105.187 25.7387 106.679 26.6749C107.595 27.2544 108.231 28.2204 108.482 29.2755C108.674 30.0185 108.6 30.8061 108.556 31.564C106.354 31.5938 104.138 31.564 101.936 31.5789C102.084 32.0693 102.261 32.5894 102.69 32.9164C103.399 33.5257 104.507 33.6297 105.32 33.169C105.704 32.9758 105.881 32.5597 106.147 32.2476C106.797 32.1287 107.477 32.2476 108.142 32.1882C108.201 32.3368 108.378 32.4705 108.319 32.6489C108.053 33.4216 107.536 34.1052 106.871 34.5808C104.995 35.9331 102.084 35.5913 100.651 33.7486C99.7495 32.5894 99.5131 31.0291 99.7643 29.6173C99.9563 28.4433 100.636 27.3139 101.67 26.6749ZM102.01 29.6767C103.443 29.6767 104.877 29.6916 106.31 29.6767C106.221 29.1715 105.985 28.6811 105.556 28.3987C104.98 27.9232 104.182 27.8935 103.488 28.0272C102.734 28.2204 102.143 28.8891 102.01 29.6767Z" fill="#1174B7"></path>
      </g>
      <path id="Vector_13" d="M110.048 26.3333C110.137 26.259 110.225 26.1847 110.314 26.1104C110.905 26.1104 111.481 26.1104 112.072 26.1104C112.117 26.1847 112.205 26.3333 112.25 26.3927C112.25 26.5265 112.25 26.8088 112.25 26.9426C112.9 26.259 113.86 25.8726 114.806 26.0509C114.821 26.7494 114.865 27.433 114.791 28.1166C114.377 28.4435 113.757 28.1463 113.284 28.384C112.545 28.5921 112.264 29.4243 112.25 30.1376C112.235 31.6237 112.25 33.1097 112.25 34.6107C112.264 34.8336 112.191 35.0565 112.102 35.2645C111.54 35.2497 110.979 35.2794 110.432 35.2645C110.27 35.2794 110.166 35.1457 110.033 35.0862C110.063 32.1735 110.048 29.2608 110.048 26.3333Z" fill="#1174B7"></path>
      <path id="Vector_14" d="M136.496 26.0956C137.043 26.1253 137.604 26.1104 138.151 26.1104C138.21 26.155 138.343 26.2442 138.402 26.2888C138.402 26.4968 138.417 26.7197 138.417 26.9426C139.067 26.3036 140.028 25.8429 140.929 26.0956C141.018 26.8237 141.018 27.5668 140.899 28.2801C140.234 28.2801 139.481 28.2206 138.949 28.6813C138.476 29.1271 138.402 29.8405 138.402 30.4497C138.402 31.9953 138.388 33.5408 138.402 35.0863C137.944 35.3984 137.368 35.22 136.866 35.2646C136.6 35.2943 136.156 35.2497 136.201 34.8782C136.186 32.3073 136.201 29.7364 136.201 27.1655C136.245 26.8089 136.097 26.3185 136.496 26.0956Z" fill="#1174B7"></path>
      <path id="Vector_15" d="M90.2046 26.7347C90.1011 26.5118 90.0864 26.2294 90.3376 26.1254C91.0025 26.0808 91.6526 26.1254 92.3175 26.1105C93.1301 28.3099 93.8541 30.539 94.6372 32.7533C95.4647 30.5539 96.1591 28.3248 96.9718 26.1254C97.6367 26.1254 98.3163 26.1403 98.9812 26.1105C99.0551 26.274 99.2472 26.4523 99.1142 26.6455C98.006 29.5136 96.9274 32.3966 95.834 35.2796C95.0362 35.2944 94.2383 35.2796 93.4256 35.2796C92.3322 32.4412 91.2832 29.5879 90.2046 26.7347Z" fill="#1174B7"></path>
      <path id="Vector_16" d="M115.249 26.6602C115.116 26.4521 115.278 26.2738 115.382 26.0955C116.076 26.1252 116.771 26.1103 117.465 26.1103C118.263 28.1165 118.958 30.1821 119.741 32.2032C119.77 32.2032 119.829 32.2181 119.859 32.2181C120.45 30.6428 121.07 29.0676 121.661 27.4924C121.839 27.0317 122.001 26.5561 122.238 26.1252C122.799 26.14 123.361 26.1252 123.922 26.14C124.114 26.1103 124.351 26.2589 124.321 26.4818C124.203 27.0317 123.907 27.5221 123.715 28.0422C122.179 31.8168 120.568 35.5617 119.046 39.3363C118.322 39.3809 117.598 39.3809 116.874 39.3363C116.859 39.0837 116.889 38.8311 117.007 38.5933C117.495 37.4787 117.938 36.3493 118.426 35.2199C118.633 34.893 118.381 34.5363 118.263 34.2242C117.244 31.6979 116.254 29.1716 115.249 26.6602Z" fill="#1174B7"></path>
    </g>
    <g id="Group_8">
      <path id="Vector_17" d="M26.5516 9.39203C26.7289 9.22856 26.9949 9.00565 27.2017 9.25828C33.8211 15.262 40.4554 21.2657 47.0748 27.2694C44.7107 27.3586 42.3466 27.2843 39.9825 27.314C39.9825 31.3264 39.9678 35.3388 39.9973 39.3512C38.4311 38.8905 36.8206 38.519 35.2248 38.192C35.2396 34.2391 35.2248 30.2861 35.2248 26.3332C36.4512 26.3035 37.6776 26.3778 38.9039 26.2886C34.8998 22.7221 30.9399 19.0812 26.9653 15.4849C22.9759 19.0961 19.0013 22.7072 15.0119 26.3183C16.2383 26.3481 17.4794 26.3183 18.7058 26.3332C18.7058 30.1227 18.7058 33.927 18.7058 37.7165C17.11 37.9543 15.5143 38.192 13.9481 38.5635C13.9333 34.8038 13.9481 31.0589 13.9481 27.2991C11.584 27.2991 9.20515 27.3289 6.84106 27.2843C10.4611 23.9704 14.0958 20.6861 17.7306 17.4019C17.7454 15.3809 17.7306 13.345 17.7306 11.3091C18.8683 11.3091 20.006 11.3091 21.1438 11.3091C21.1438 12.3047 21.129 13.2855 21.1585 14.2812C22.9464 12.6614 24.7638 11.0416 26.5516 9.39203Z" fill="#3CB64B"></path>
      <path id="Vector_18" d="M24.084 20.2849C26.0787 20.2849 28.0881 20.2849 30.0828 20.2849C30.0828 22.2911 30.0828 24.3122 30.0828 26.3183C28.0881 26.3183 26.0935 26.3183 24.084 26.3183C24.084 24.3122 24.084 22.306 24.084 20.2849Z" fill="#3CB64B"></path>
      <path id="Vector_19" d="M22.503 30.0039C25.5616 30.0039 28.6201 30.0039 31.6786 30.0039C31.6786 32.5451 31.6786 35.1011 31.6786 37.6423C29.8317 37.3897 27.9552 37.3599 26.0935 37.2708C24.8967 37.2262 23.6998 37.3451 22.503 37.3748C22.503 34.9228 22.4883 32.4559 22.503 30.0039Z" fill="#3CB64B"></path>
      <path id="Vector_20" d="M139.643 41.8032C139.924 41.8032 140.219 41.8181 140.5 41.8478C140.618 42.2788 140.367 42.8583 139.835 42.7246C139.303 42.7692 139.407 42.1004 139.643 41.8032Z" fill="#3CB64B"></path>
      <g id="Group_9">
        <path id="Vector_21" d="M116.254 41.9519C116.52 41.9519 116.8 41.9519 117.081 41.9519C116.919 43.4677 116.564 44.9538 116.328 46.4696C116.062 46.4696 115.81 46.4696 115.544 46.4696C115.515 46.425 115.456 46.3209 115.426 46.2764C114.806 46.6033 113.993 46.6925 113.432 46.2021C112.811 45.5333 112.988 44.4634 113.476 43.7798C114.037 43.007 115.219 42.7841 116.002 43.3488C116.076 42.8584 116.15 42.3977 116.254 41.9519ZM114.776 43.7649C113.963 44.0027 113.535 45.3996 114.451 45.786C115.175 45.9494 115.855 45.1321 115.737 44.4336C115.781 43.9284 115.219 43.6014 114.776 43.7649Z" fill="#3CB64B"></path>
      </g>
      <path id="Vector_22" d="M121.602 41.9519C121.898 41.9519 122.193 41.9519 122.474 41.9519C122.208 43.4528 121.957 44.9686 121.691 46.4696C121.41 46.4696 121.115 46.4547 120.834 46.4547C121.071 44.9538 121.351 43.4528 121.602 41.9519Z" fill="#3CB64B"></path>
      <path id="Vector_23" d="M123.124 42.68C123.05 42.3679 123.08 42.0707 123.257 41.8032C123.538 41.8032 123.819 41.8181 124.099 41.8329C124.173 42.1896 124.099 42.5463 123.774 42.7543C123.553 42.7246 123.331 42.7097 123.124 42.68Z" fill="#3CB64B"></path>
      <path id="Vector_24" d="M141.254 42.249C141.549 42.2639 141.83 42.2639 142.126 42.2787C142.067 42.5314 142.007 42.784 141.948 43.0366C142.214 43.0366 142.465 43.0515 142.731 43.0515C142.717 43.2744 142.702 43.4973 142.687 43.7202C142.421 43.7202 142.14 43.7202 141.874 43.7351C141.756 44.4187 141.564 45.0874 141.549 45.7859C141.786 45.8007 142.037 45.8304 142.288 45.8453C142.244 46.0534 142.214 46.2614 142.17 46.4695C141.682 46.4249 140.958 46.6181 140.692 46.0682C140.574 45.2806 140.914 44.5227 140.988 43.75C140.899 43.75 140.737 43.75 140.648 43.75C140.648 43.6013 140.663 43.319 140.663 43.1704C140.811 43.1258 140.958 43.0812 141.106 43.0366C141.15 42.7543 141.21 42.5017 141.254 42.249Z" fill="#3CB64B"></path>
      <g id="Group_10">
        <path id="Vector_25" d="M117.554 43.7053C118.086 43.0366 119.076 42.8434 119.859 43.1406C120.583 43.4379 120.76 44.4187 120.406 45.0725C119.563 45.0577 118.706 45.0279 117.864 45.0874C117.997 45.3995 118.174 45.8304 118.573 45.8304C118.913 45.875 119.194 45.6075 119.401 45.3846C119.711 45.3846 120.036 45.3846 120.346 45.3846C119.888 46.4694 118.352 46.9153 117.45 46.1574C116.8 45.4738 117.037 44.3889 117.554 43.7053ZM118.101 44.4781C118.633 44.4781 119.179 44.4781 119.711 44.4781C119.637 44.1957 119.593 43.8242 119.268 43.7499C118.751 43.5716 118.204 43.958 118.101 44.4781Z" fill="#3CB64B"></path>
      </g>
      <path id="Vector_26" d="M126.803 43.0515C127.114 43.0515 127.409 43.0515 127.719 43.0515C127.158 44.2106 126.464 45.3103 125.873 46.4546C125.533 46.4546 125.193 46.4546 124.868 46.4546C124.69 45.3103 124.336 44.1958 124.218 43.0515C124.513 43.0515 124.794 43.0515 125.089 43.0515C125.237 43.854 125.4 44.6565 125.503 45.4738C125.961 44.6862 126.36 43.854 126.803 43.0515Z" fill="#3CB64B"></path>
      <path id="Vector_27" d="M136.422 43.0516C136.688 43.0516 136.939 43.0516 137.205 43.0516C137.087 43.542 136.792 43.9432 136.54 44.3742C135.861 45.5184 135.196 46.6776 134.501 47.8218C134.28 48.1785 133.807 47.9704 133.482 47.9407C133.822 47.4206 134.117 46.8707 134.442 46.3358C134.176 45.2509 133.955 44.1364 133.703 43.0516C134.014 43.111 134.457 42.9178 134.693 43.2002C134.841 43.9135 134.945 44.6268 135.092 45.3252C135.565 44.5822 135.935 43.7797 136.422 43.0516Z" fill="#3CB64B"></path>
      <path id="Vector_28" d="M102.808 43.0366C103.103 43.0366 103.414 43.0515 103.709 43.1258C103.724 43.8688 103.783 44.6118 103.872 45.3549C104.226 44.5821 104.507 43.7648 104.921 43.0217C105.201 43.0366 105.482 43.0663 105.778 43.096C105.778 43.8391 105.866 44.5672 105.97 45.2954C106.295 44.5375 106.59 43.7499 106.975 43.0217C107.241 43.0366 107.506 43.0366 107.772 43.0366C107.314 44.1957 106.694 45.2806 106.206 46.4248C105.896 46.4248 105.6 46.4397 105.29 46.4397C105.157 45.771 105.261 45.0725 105.054 44.4186C104.743 45.0874 104.448 45.7561 104.152 46.4248C103.857 46.4248 103.561 46.4248 103.251 46.4248C103.118 45.3251 102.897 44.1957 102.808 43.0366Z" fill="#3CB64B"></path>
      <g id="Group_11">
        <path id="Vector_29" d="M107.876 46.1278C107.093 45.1173 107.728 43.3934 108.955 43.0813C109.575 42.9327 110.343 42.9476 110.772 43.4974C111.112 43.9433 111.023 44.5377 110.905 45.0578C110.063 45.0578 109.22 45.0578 108.393 45.0578C108.423 45.2064 108.437 45.355 108.467 45.5036C108.659 45.6374 108.836 45.8603 109.102 45.8306C109.427 45.8454 109.664 45.5779 109.885 45.3699C110.181 45.3699 110.462 45.3699 110.757 45.3699C110.388 46.5142 108.762 46.9154 107.876 46.1278ZM108.541 44.4782C109.073 44.4931 109.605 44.4782 110.151 44.4782C110.122 44.3594 110.077 44.1067 110.048 43.9878C109.575 43.4231 108.659 43.8095 108.541 44.4782Z" fill="#3CB64B"></path>
      </g>
      <path id="Vector_30" d="M122.415 46.4545C122.637 45.3103 122.725 44.1363 123.05 43.0217C123.316 43.0366 123.582 43.0366 123.833 43.0515C123.701 44.1957 123.405 45.2954 123.302 46.4397C123.021 46.4545 122.725 46.4545 122.415 46.4545Z" fill="#3CB64B"></path>
      <g id="Group_12">
        <path id="Vector_31" d="M127.808 46.1278C127.025 45.1024 127.675 43.3934 128.901 43.0962C129.419 42.9773 130.024 42.9476 130.468 43.2894C131 43.6461 131.073 44.4783 130.807 45.0132C130.01 45.147 129.153 45.0281 128.34 45.0727C128.355 45.2213 128.384 45.3699 128.399 45.5334C128.562 45.6374 128.724 45.7563 128.887 45.8454C129.271 45.9346 129.537 45.5928 129.832 45.4145C130.113 45.3699 130.408 45.3996 130.704 45.3996C130.305 46.5142 128.695 46.9303 127.808 46.1278ZM128.473 44.4783C129.005 44.4931 129.552 44.4783 130.083 44.4783C130.024 44.2405 129.936 44.0027 129.832 43.7798C129.271 43.5866 128.621 43.8393 128.473 44.4783Z" fill="#3CB64B"></path>
      </g>
      <path id="Vector_32" d="M131.221 46.4396C131.413 45.3102 131.605 44.1659 131.842 43.0365C132.167 43.0365 132.477 43.1108 132.787 43.1702C133.083 43.1257 133.378 43.0365 133.674 42.9771C133.63 43.2297 133.6 43.4972 133.541 43.7349C133.172 43.839 132.684 43.8687 132.536 44.2997C132.3 44.9981 132.27 45.7411 132.093 46.4544C131.797 46.4544 131.502 46.4544 131.221 46.4396Z" fill="#3CB64B"></path>
      <path id="Vector_33" d="M138.831 46.4546C139.008 45.3103 139.156 44.1512 139.451 43.0366C139.717 43.0515 139.983 43.0515 140.264 43.0663C140.086 44.2106 139.894 45.34 139.673 46.4694C139.377 46.4694 139.097 46.4546 138.831 46.4546Z" fill="#3CB64B"></path>
    </g>
    <g id="Group_13">
      <path id="Vector_34" d="M147.519 27.6112C148.464 26.6007 149.853 25.9914 151.242 26.036C152.188 26.0063 153.163 26.2738 153.887 26.8979C154.552 27.5072 154.892 28.4137 154.862 29.3053C154.227 29.4094 153.591 29.3648 152.956 29.3648C152.897 28.8001 152.661 28.1908 152.114 27.9233C151.124 27.418 149.853 27.6707 149.055 28.4137C148.228 29.1419 147.918 30.2713 147.814 31.3412C147.74 32.1586 148.021 33.0948 148.775 33.5109C150.119 34.1945 151.907 33.4663 152.439 32.0694C153.03 32.0397 153.621 32.0546 154.212 32.0546C154.389 32.4855 154.049 32.857 153.843 33.2137C152.601 35.1159 149.957 35.9481 147.873 35.0416C146.883 34.5957 146.159 33.6298 146.012 32.545C145.746 30.7914 146.263 28.8892 147.519 27.6112Z" fill="#3FA3E7"></path>
      <g id="Group_14">
        <path id="Vector_35" d="M160.004 26.1251C161.349 25.9022 162.885 26.0954 163.86 27.1207C164.776 28.0124 164.983 29.3944 164.791 30.5981C164.643 31.8019 164.067 32.9164 163.24 33.7932C162.176 34.8632 160.684 35.4576 159.191 35.4279C158.024 35.3684 156.798 34.8632 156.162 33.8229C155.364 32.5746 155.468 30.9548 155.97 29.6025C156.591 27.8489 158.187 26.4669 160.004 26.1251ZM159.989 27.8192C158.393 28.2204 157.463 29.9294 157.492 31.5046C157.433 32.3368 157.862 33.2433 158.674 33.5554C159.723 33.9418 160.935 33.6149 161.747 32.8867C162.619 32.1139 163.033 30.8954 162.974 29.7511C162.944 29.0526 162.59 28.3542 161.969 28.0124C161.363 27.6854 160.639 27.626 159.989 27.8192Z" fill="#3FA3E7"></path>
      </g>
      <path id="Vector_36" d="M169.002 26.9722C169.8 26.2887 170.849 25.9469 171.898 26.036C172.992 26.0212 174.011 26.6602 174.528 27.6261C175.696 26.0955 178.015 25.5308 179.685 26.4967C180.764 27.1357 181.118 28.5475 180.897 29.7215C180.586 31.5791 180.261 33.4218 179.936 35.2645C179.419 35.2645 178.902 35.2645 178.385 35.2645C178.326 35.2051 178.207 35.101 178.148 35.0416C178.414 33.2583 178.784 31.4899 179.05 29.7066C179.153 29.023 178.931 28.2205 178.281 27.8936C177.365 27.4626 176.198 27.7004 175.504 28.4137C174.986 28.9041 174.72 29.6174 174.602 30.301C174.336 31.9654 173.996 33.6001 173.731 35.2645C173.199 35.2645 172.667 35.2645 172.135 35.2794C171.987 35.0862 171.928 34.8633 172.002 34.6255C172.268 33.08 172.548 31.5345 172.814 30.0038C172.933 29.2756 172.874 28.3691 172.179 27.953C171.263 27.4329 170.022 27.6856 169.298 28.4137C168.722 28.9784 168.47 29.7958 168.352 30.5685C168.086 32.1438 167.82 33.7041 167.525 35.2645C167.008 35.2645 166.491 35.2645 165.973 35.2645C165.914 35.2051 165.781 35.0862 165.722 35.0416C166.225 32.0843 166.756 29.1419 167.274 26.1995C167.865 26.1698 168.47 26.1549 169.061 26.2441C169.047 26.4967 169.032 26.7345 169.002 26.9722Z" fill="#3FA3E7"></path>
      <path id="Vector_37" d="M142.111 33.7784C142.332 33.2583 142.879 33.0205 143.396 32.9165C143.751 33.0354 144.179 33.184 144.283 33.6001C144.593 34.4917 143.721 35.5171 142.79 35.3091C142.096 35.2645 141.756 34.358 142.111 33.7784Z" fill="#3FA3E7"></path>
    </g>
    <g id="Group_15">
      <path id="Vector_38" d="M18.7058 37.7167C19.9617 37.5532 21.2324 37.4195 22.4883 37.3749C23.6851 37.3303 24.882 37.2263 26.0788 37.2709C27.9405 37.36 29.817 37.3898 31.6639 37.6424C32.846 37.7761 34.028 37.9991 35.21 38.1922C36.8206 38.5192 38.4163 38.8907 39.9825 39.3514C45.5529 40.9415 50.8425 43.4678 55.7185 46.6034C50.1629 46.648 44.6073 46.6034 39.0517 46.6183C38.5936 46.648 38.2981 46.2467 37.9287 46.0535C34.3531 43.7353 30.3341 42.1749 26.2118 41.209C18.6319 39.4703 10.6236 40.0201 3.25061 42.4275C4.59518 41.6251 6.05796 41.0752 7.50596 40.4957C9.60408 39.7229 11.7465 39.0839 13.9333 38.5786C15.5143 38.1922 17.11 37.9545 18.7058 37.7167Z" fill="#58595B"></path>
      <path id="Vector_39" d="M90.8103 42.0856C90.9433 41.6695 91.4309 41.833 91.756 41.8033C91.7855 42.041 91.8594 42.2937 91.7412 42.5314C91.5343 42.7989 91.1797 42.6949 90.899 42.7395C90.8399 42.5314 90.6626 42.2937 90.8103 42.0856Z" fill="#58595B"></path>
      <path id="Vector_40" d="M66.209 41.9521C66.5045 41.9521 66.7853 41.9521 67.0808 41.9373C67.0069 42.3534 66.933 42.7843 66.8739 43.2004C67.4058 43.0072 68.0412 42.8586 68.5435 43.1856C68.9277 43.3936 69.0164 43.884 68.972 44.2852C68.8981 45.0134 68.7356 45.7416 68.6026 46.4549C68.3219 46.4549 68.0264 46.4549 67.7457 46.4549C67.8639 45.7713 67.9968 45.1026 68.1003 44.419C68.1594 44.1812 67.9821 43.988 67.9082 43.78C67.4354 43.6462 66.8887 43.7651 66.6966 44.2852C66.5045 44.9986 66.4306 45.7416 66.2977 46.4549C66.0022 46.4549 65.7066 46.4549 65.4259 46.44C65.6771 44.954 65.943 43.453 66.209 41.9521Z" fill="#58595B"></path>
      <path id="Vector_41" d="M89.2884 41.967C89.584 41.9521 89.8795 41.9373 90.175 41.9373C89.9681 43.453 89.6578 44.954 89.3919 46.4698C89.1111 46.4698 88.8452 46.4549 88.5792 46.4549C88.7122 44.9391 89.1259 43.4828 89.2884 41.967Z" fill="#58595B"></path>
      <path id="Vector_42" d="M62.7515 42.368C63.313 42.1005 63.9926 42.1005 64.5837 42.3234C64.9678 42.5166 65.1599 42.9475 65.1895 43.3488C64.8792 43.3636 64.5689 43.3636 64.2734 43.3785C64.2143 43.215 64.1552 43.0515 64.0813 42.8881C63.7267 42.7989 63.3721 42.8435 63.0618 43.0515C63.0913 43.2596 62.9731 43.5271 63.1948 43.6608C63.6528 44.0175 64.2586 44.1215 64.6871 44.5376C65.1747 45.028 65.0122 45.9642 64.4064 46.2763C63.8006 46.6181 62.9731 46.633 62.3673 46.2763C61.9832 46.0831 61.9093 45.6373 61.9093 45.2509C62.19 45.2509 62.4855 45.2361 62.7663 45.2361C62.7811 45.3252 62.8106 45.5036 62.8254 45.5927C62.8993 45.6522 63.0618 45.7859 63.1357 45.8602C63.5494 45.9197 63.9631 45.7413 64.1256 45.3401C63.7562 44.5673 62.6776 44.7159 62.2639 43.9878C61.998 43.4082 62.1753 42.6652 62.7515 42.368Z" fill="#58595B"></path>
      <g id="Group_16">
        <path id="Vector_43" d="M73.7446 43.0367C74.2174 42.9624 74.6459 43.3042 75.1039 43.0962C75.754 42.8733 76.5815 43.0516 76.8917 43.7203C77.3055 44.82 76.6258 46.2466 75.4585 46.4844C74.9709 46.6479 74.4833 46.4547 74.0548 46.2169C73.9366 46.8262 73.8332 47.4355 73.715 48.0448C73.4343 48.0448 73.1535 48.0448 72.8876 48.0448C73.1092 46.3655 73.4343 44.7011 73.7446 43.0367ZM74.7197 44.0027C74.1878 44.4485 74.0696 45.5482 74.8527 45.8008C75.7983 45.9048 76.4337 44.6863 75.9609 43.8987C75.5619 43.6906 75.0448 43.6609 74.7197 44.0027Z" fill="#58595B"></path>
      </g>
      <path id="Vector_44" d="M84.3238 43.1409C84.8261 43.0518 85.3876 42.8883 85.8604 43.1558C86.1707 43.2895 86.3332 43.6313 86.3332 43.9583C86.348 44.8053 86.0968 45.6227 85.9786 46.44C85.6831 46.44 85.3876 46.44 85.0921 46.44C85.2103 45.7118 85.4024 44.9985 85.4615 44.2703C85.4615 43.557 84.4124 43.5719 84.1612 44.1217C83.8362 44.8499 83.8362 45.6821 83.6589 46.4549C83.3781 46.4549 83.1122 46.44 82.8314 46.44C82.9792 45.2957 83.186 44.1515 83.4077 43.022C83.7032 43.0518 84.0135 43.0963 84.3238 43.1409Z" fill="#58595B"></path>
      <path id="Vector_45" d="M90.7512 43.0518C91.0171 43.0964 91.4013 42.9181 91.5786 43.2004C91.4161 44.2852 91.1797 45.3701 91.0024 46.4549C90.7069 46.4549 90.4261 46.44 90.1306 46.44C90.3079 45.3106 90.5148 44.1812 90.7512 43.0518Z" fill="#58595B"></path>
      <path id="Vector_46" d="M92.347 43.0368C92.6573 43.0517 92.9676 43.0814 93.2631 43.1854C93.8246 42.9774 94.519 42.9179 95.0066 43.3192C95.2873 43.6312 95.3169 44.0622 95.243 44.4634C95.1248 45.1322 95.0214 45.8009 94.9032 46.4696C94.6077 46.4696 94.3269 46.4696 94.0314 46.4696C94.1201 45.7415 94.3269 45.0281 94.4008 44.3C94.4304 43.9582 94.061 43.6907 93.7359 43.7501C93.3222 43.7204 93.0415 44.1068 92.938 44.4783C92.7755 45.147 92.7164 45.8158 92.5686 46.4845C92.2731 46.4845 91.9924 46.4696 91.7117 46.4696C91.9038 45.3105 92.0811 44.1514 92.347 43.0368Z" fill="#58595B"></path>
      <g id="Group_17">
        <path id="Vector_47" d="M70.6121 43.1704C71.2475 42.9326 72.0749 42.9177 72.5772 43.423C73.0353 43.8539 73.0796 44.5821 72.8728 45.1617C72.5034 46.2911 71.0554 46.9004 70.0063 46.3208C69.5483 46.0831 69.371 45.5332 69.4153 45.0428C69.3562 44.2403 69.8733 43.4527 70.6121 43.1704ZM70.6269 44.062C70.1836 44.5375 70.0654 45.6224 70.8485 45.8304C71.8532 45.9196 72.4886 44.493 71.7794 43.7796C71.3804 43.7053 70.8928 43.6905 70.6269 44.062Z" fill="#58595B"></path>
      </g>
      <g id="Group_18">
        <path id="Vector_48" d="M80.2163 43.1855C80.9403 42.8883 81.945 42.9032 82.4326 43.6313C82.9646 44.5973 82.4622 45.9496 81.4427 46.3509C80.7039 46.6926 79.6548 46.6183 79.2116 45.8456C78.7683 44.8796 79.2264 43.6016 80.2163 43.1855ZM80.6743 43.78C80.1129 44.0474 79.8469 44.7459 79.9651 45.3403C80.0833 45.6524 80.4084 45.905 80.7482 45.8307C81.4574 45.6673 81.9303 44.8053 81.6643 44.1218C81.5018 43.7354 81.029 43.6313 80.6743 43.78Z" fill="#58595B"></path>
      </g>
      <g id="Group_19">
        <path id="Vector_49" d="M96.9273 43.1556C97.5035 42.9624 98.2127 42.9178 98.7151 43.3042C99.2618 43.7054 99.2766 44.5079 98.9958 45.0726C98.1832 45.0429 97.3705 45.0577 96.5726 45.0577C96.5874 45.2212 96.617 45.3847 96.6317 45.5481C96.8386 45.6819 97.0307 45.8751 97.3114 45.8453C97.6217 45.8453 97.8138 45.5481 98.065 45.4144C98.3605 45.3698 98.656 45.3995 98.9515 45.3995C98.5082 46.5587 96.7204 46.9896 95.9225 45.9939C95.3463 44.9983 95.8486 43.5419 96.9273 43.1556ZM96.6613 44.4782C97.208 44.493 97.7547 44.493 98.3014 44.493C98.2718 44.1661 98.1388 43.75 97.7399 43.7351C97.2375 43.6162 96.8386 44.0323 96.6613 44.4782Z" fill="#58595B"></path>
      </g>
      <path id="Vector_50" d="M99.4686 45.5334C99.7789 45.5334 100.089 45.5334 100.399 45.5483C100.089 46.1427 99.7198 46.7223 99.3652 47.3019C99.1731 47.3019 98.9663 47.3019 98.7742 47.3167C98.9367 46.6926 99.2174 46.1279 99.4686 45.5334Z" fill="#58595B"></path>
    </g>
  </g>
  <defs>
    <clipPath id="clip0_890_7158">
      <rect width="181" height="48" fill="white"></rect>
    </clipPath>
  </defs>
</svg>
