<?xml version="1.0" encoding="UTF-8"?>
<svg xmlns="http://www.w3.org/2000/svg" width="100" height="100" viewBox="0 0 100 100" fill="none">
  <rect width="100" height="100" rx="25" fill="#F34E39"></rect>
  <path d="M77.1225 34.6121C77.1139 34.5868 77.1038 34.5621 77.092 34.5381C77.0764 34.4913 77.0571 34.4457 77.0343 34.402C77.0167 34.3748 76.997 34.3489 76.9755 34.3247C76.9516 34.2889 76.9254 34.2547 76.8971 34.2223C76.8721 34.1984 76.8405 34.1788 76.8133 34.157C76.7822 34.1303 76.7495 34.1055 76.7153 34.083L66.2342 28.0487C66.1018 27.9722 65.9516 27.9319 65.7987 27.9319C65.6458 27.9319 65.4956 27.9722 65.3631 28.0487L54.8799 34.0862C54.8462 34.109 54.8142 34.1341 54.7841 34.1613C54.7544 34.1813 54.726 34.2031 54.6991 34.2267C54.6706 34.2585 54.6444 34.2924 54.6207 34.3279C54.6022 34.3541 54.5783 34.3769 54.5619 34.4052C54.5399 34.4492 54.521 34.4947 54.5053 34.5413C54.4966 34.5664 54.4825 34.5893 54.4748 34.6154C54.4549 34.6892 54.4446 34.7654 54.4443 34.8419V46.3007L45.7097 51.33V28.9077C45.7099 28.8309 45.6997 28.7543 45.6793 28.6802C45.6727 28.654 45.6575 28.6312 45.6488 28.6061C45.6336 28.5597 45.6146 28.5145 45.5922 28.4711C45.5769 28.4428 45.5519 28.4199 45.5334 28.3927C45.5094 28.357 45.4832 28.3228 45.455 28.2904C45.4278 28.2671 45.3995 28.2453 45.37 28.225C45.3395 28.1986 45.3075 28.1738 45.2742 28.151V28.151L34.7899 22.1167C34.6574 22.0402 34.5072 22 34.3543 22C34.2014 22 34.0512 22.0402 33.9188 22.1167L23.4366 28.151C23.4026 28.1733 23.3705 28.1984 23.3408 28.2261C23.3108 28.2461 23.282 28.2679 23.2548 28.2915C23.2266 28.3233 23.2008 28.3572 23.1775 28.3927C23.1579 28.4199 23.1339 28.4428 23.1176 28.4711C23.0953 28.5145 23.0767 28.5596 23.0621 28.6061C23.0502 28.6298 23.0396 28.6542 23.0305 28.6791C23.0105 28.7537 23.0002 28.8305 23 28.9077V64.8065C22.9996 64.9598 23.0396 65.1105 23.1161 65.2434C23.1926 65.3762 23.3028 65.4866 23.4355 65.5632L44.3955 77.6318C44.4421 77.6553 44.4906 77.675 44.5403 77.6906C44.5632 77.6993 44.585 77.7124 44.6089 77.7189C44.7552 77.7581 44.9091 77.7581 45.0554 77.7189C45.0771 77.7135 45.0956 77.7015 45.1152 77.695C45.1678 77.6785 45.2188 77.6573 45.2677 77.6318L66.2342 65.5632C66.367 65.4866 66.4772 65.3762 66.5536 65.2434C66.6301 65.1105 66.6702 64.9598 66.6697 64.8065V53.3455L76.7131 47.5627C76.8467 47.4856 76.9574 47.3744 77.0339 47.2405C77.1104 47.1065 77.15 46.9547 77.1486 46.8005V34.8397C77.1492 34.7631 77.1405 34.6866 77.1225 34.6121V34.6121ZM34.3532 23.8817L43.0846 28.9066L34.3522 33.9349L25.6219 28.9077L34.3532 23.8817ZM43.9622 30.4147V52.335L38.8958 55.252L35.2276 57.3643V35.4473L40.2939 32.5303L43.9622 30.4147ZM43.9622 75.3594L24.7465 64.3013V30.419L28.4148 32.5292L33.48 35.4473V58.8767C33.4822 58.9096 33.4866 58.9424 33.4931 58.9747C33.4957 59.0179 33.5015 59.0609 33.5105 59.1032V59.1032C33.5216 59.1369 33.5354 59.1697 33.5519 59.2012C33.564 59.2387 33.5793 59.2751 33.5976 59.3101C33.6177 59.3396 33.6395 59.368 33.6629 59.395C33.6847 59.4271 33.7087 59.4577 33.7348 59.4865V59.4865C33.7598 59.5104 33.7914 59.5278 33.8186 59.5496C33.8484 59.5754 33.8796 59.5994 33.9123 59.6215V59.6215L43.9502 65.303L43.9622 75.3594ZM44.8332 63.7993L36.1161 58.8647L45.272 53.5937L55.3176 47.8109L64.0424 52.8337L57.6401 56.4878L44.8332 63.7993ZM64.9243 64.2969L45.7076 75.3649V65.3139L59.9408 57.1912L64.9243 54.3439V64.2969ZM64.9243 51.3257L61.2561 49.221L56.1897 46.304V36.3499L59.858 38.4622L64.9243 41.3814V51.3257ZM65.7954 39.8625L57.063 34.8353L65.7954 29.8093L74.5256 34.8342L65.7954 39.8625ZM66.6665 51.3257V41.3814L71.7437 38.4622L75.4109 36.3499V46.3007L66.6665 51.3257Z" fill="white" stroke="white"></path>
</svg>
