<?xml version="1.0" encoding="UTF-8"?>
<svg xmlns="http://www.w3.org/2000/svg" width="100" height="100" viewBox="0 0 100 100" fill="none">
  <rect width="100" height="100" rx="25" fill="#8EC84F"></rect>
  <g clip-path="url(#clip0_1550_41535)">
    <path d="M77.657 32.5459C77.8772 32.764 78.0753 33.0148 78.2404 33.2765C79.2862 34.923 78.945 37.0493 78.945 38.9029C78.956 46.2958 78.9339 53.6887 78.9339 61.0925C78.9339 62.3138 78.9339 63.6004 78.2294 64.6254C77.5249 65.6613 76.303 66.4028 75.2352 67.0025C70.865 69.4341 66.4948 71.8657 62.1136 74.319C60.2092 75.3876 58.2717 76.4126 56.3893 77.5139C54.518 78.6043 52.2613 80.229 49.9936 79.9891C48.3314 79.8147 46.9774 78.866 45.5684 78.0482C45.062 77.7538 39.5469 74.2536 39.4589 74.3409C41.4954 72.3672 43.8951 72.7489 46.2509 73.8938C47.3517 74.4281 48.4305 75.2132 49.6083 75.5948C50.9073 76.0201 51.9421 75.4203 53.0649 74.7879C59.8129 70.9497 66.5718 67.1006 73.3198 63.2624C75.6205 61.9539 74.6628 59.0426 74.6628 56.8618C74.6628 54.6374 74.6628 52.4239 74.6628 50.1995C74.6628 45.9033 74.6738 41.6071 74.6738 37.311C74.6738 36.7876 74.6738 36.2315 74.4426 35.7517C74.1344 35.1193 73.4739 34.7267 72.8575 34.3778C66.1425 30.5941 59.4276 26.7995 52.7236 23.0158C52.0962 22.6669 51.4467 22.2962 50.7202 22.2526C49.8065 22.1981 48.9479 22.656 48.1443 23.1031C41.3082 26.9413 34.4612 30.7795 27.6141 34.6177C27.1738 34.8685 26.7115 35.1302 26.4803 35.5663C26.2711 35.9589 26.2601 36.4277 26.2601 36.8639C26.2711 41.6071 26.2711 46.3395 26.2822 51.0827C26.2822 53.4488 26.2932 55.8259 26.2932 58.1921C26.2932 60.1657 25.7428 62.172 27.6912 63.3169C29.8708 64.5927 34.7694 68.2673 37.4114 66.3701C38.5892 65.5304 38.6993 63.8621 38.6993 62.4228C38.6993 54.4847 38.6993 46.5466 38.6993 38.6194C38.6993 38.2269 38.7213 37.7689 39.0295 37.5181C39.2827 37.311 39.635 37.311 39.9542 37.3219C40.7248 37.3437 41.4844 37.3546 42.2549 37.3764C42.4641 37.3764 42.6952 37.3982 42.8384 37.5399C43.0035 37.6926 43.0145 37.9325 43.0145 38.1506C43.0475 39.8407 43.0475 41.5199 43.0475 43.21C43.0585 49.5997 43.0695 56.0004 43.0695 62.3901C43.0695 64.5055 43.0365 66.7626 41.8146 68.5072C38.9305 72.6507 33.0962 70.9715 29.4525 69.0524C27.471 68.0166 25.0933 66.9916 23.5081 65.3887C22.1981 64.0802 22 62.51 22 60.7436C22.011 52.3694 22.022 43.9842 22.022 35.6099C22.022 33.2329 24.0255 31.859 25.9079 30.8013C29.6176 28.7295 33.3934 26.7886 37.1362 24.7714C40.7908 22.7978 44.2474 19.93 48.1443 18.4689C49.8946 17.8147 51.7879 17.8147 53.4612 18.7088C54.3198 19.254 55.2115 19.7338 56.1141 20.2026C60.0881 22.2853 63.9959 24.5097 67.9038 26.745C69.8523 27.8681 71.8007 28.9912 73.7601 30.1034C75.0261 30.8231 76.6002 31.4664 77.657 32.5459Z" fill="white"></path>
    <path d="M47.8365 59.0753C46.4055 57.7886 45.4808 56.0549 45.3157 54.1358C45.1946 52.6747 46.6477 52.5656 47.7925 52.6202C48.5411 52.6529 49.3226 52.98 49.6969 53.6233C50.4014 54.8009 50.2363 55.9132 51.6013 56.731C52.493 57.2761 53.5498 57.4833 54.5845 57.6578C57.1164 58.0721 59.7693 58.2902 62.1801 57.4288C63.5231 56.949 64.8881 55.8586 64.8111 54.4411C64.723 52.9255 63.0828 52.0204 61.6077 51.6388C58.2282 50.7883 54.6506 51.1481 51.2821 50.1995C48.0787 49.2835 45.3817 46.5903 46.0532 43.0465C46.4715 40.8548 48.1338 39.0338 50.1262 38.0088C52.1187 36.9838 54.4084 36.6458 56.6651 36.5913C59.2299 36.5259 61.8829 36.8094 64.1506 37.9979C66.4182 39.1865 68.2676 41.4 68.4547 43.9297C68.4988 44.4422 68.4217 45.031 67.9924 45.3145C67.7392 45.478 67.431 45.478 67.1338 45.489C66.4843 45.489 65.8238 45.4671 65.1743 45.4235C64.9542 45.4126 64.723 45.3799 64.5359 45.26C64.2606 45.0746 64.1836 44.7148 64.0845 44.3986C63.4791 42.4358 61.4976 41.1383 59.4611 40.7457C57.1604 40.3096 53.2415 40.375 51.4362 42.1196C50.8308 42.6975 50.4895 43.5917 50.7537 44.3767C51.15 45.5544 52.6141 45.936 53.847 46.1432C57.1604 46.6993 60.4629 47.1136 63.7323 47.866C66.2201 48.433 68.3997 49.7088 69.2363 52.2603C70.3812 55.7605 68.1245 59.1843 64.9872 60.6782C61.1564 62.4992 55.4982 62.4337 51.5022 61.1471C50.1372 60.7 48.8603 60.0021 47.8365 59.0753Z" fill="white"></path>
  </g>
  <defs>
    <clipPath id="clip0_1550_41535">
      <rect width="57" height="62" fill="white" transform="translate(22 18)"></rect>
    </clipPath>
  </defs>
</svg>
