<?xml version="1.0" encoding="UTF-8"?>
<svg xmlns="http://www.w3.org/2000/svg" width="100" height="100" viewBox="0 0 100 100" fill="none">
  <rect width="100" height="100" rx="25" fill="#7377AD"></rect>
  <path d="M49.7731 65.5589C43.923 65.517 37.4556 64.7029 31.207 62.5388C27.3454 61.2018 23.7067 59.4414 20.7246 56.5629C18.4648 54.3818 16.9377 51.8257 17.002 48.5632C17.0544 45.8996 18.2289 43.6949 19.9775 41.7654C22.405 39.0901 25.4618 37.3415 28.7427 35.9612C33.4826 33.9675 38.4544 32.8952 43.556 32.3749C51.291 31.5845 58.9447 32.0091 66.4805 33.9819C70.8087 35.1144 74.9338 36.7346 78.5529 39.444C80.8848 41.1899 82.8129 43.2754 83.6885 46.1277C84.711 49.4584 83.8157 52.4169 81.725 55.0686C79.5491 57.8278 76.647 59.6302 73.5115 61.0825C69.2056 63.0776 64.6519 64.2219 59.9697 64.8943C56.8343 65.3479 53.6779 65.5563 49.7731 65.5589ZM50.6579 62.7682C53.151 62.7237 55.7228 62.6083 58.2854 62.2937C62.9177 61.7248 67.4321 60.6985 71.7223 58.824C74.4396 57.6365 76.9812 56.1644 79.0156 53.9505C80.1258 52.7407 80.9673 51.3774 81.2216 49.7206C81.59 47.314 80.5898 45.3792 79.0549 43.6529C77.7048 42.135 76.0676 40.9737 74.2941 40.0089C68.5712 36.8958 62.3501 35.5837 55.9351 35.0305C51.2189 34.6242 46.5118 34.7461 41.8192 35.4015C36.867 36.0923 32.0656 37.2969 27.5905 39.5921C25.062 40.8885 22.7354 42.4614 21.0982 44.8549C19.3247 47.4464 19.3627 50.2108 21.1572 52.7891C22.4444 54.6387 24.1838 55.9744 26.0792 57.1318C26.9679 57.6745 26.9666 57.6692 27.2143 56.6704C28.4517 51.7012 29.6917 46.7333 30.9344 41.7654C31.1729 40.8124 31.6055 40.4022 32.4247 40.3969C34.4119 40.3851 36.4017 40.3576 38.3875 40.4074C40.743 40.4651 42.8351 42.1822 43.4721 44.446C43.9034 45.9796 43.5875 47.4437 43.0723 48.8673C41.9411 51.9961 39.7088 53.8391 36.3991 54.2887C34.7068 54.5181 32.9949 54.3621 31.2935 54.3687C30.8243 54.37 30.6014 54.4853 30.5031 54.9651C30.3157 55.8826 30.0653 56.7871 29.8399 57.6968C29.5331 58.9368 29.5358 58.9289 30.7522 59.3942C37.1331 61.8376 43.7841 62.7053 50.6579 62.7682ZM36.0111 43.1797C35.3334 43.1797 34.657 43.1928 33.9793 43.1745C33.6294 43.1653 33.4419 43.2348 33.3462 43.6333C32.7446 46.1329 32.1141 48.6261 31.4744 51.1166C31.384 51.4692 31.4338 51.5793 31.8152 51.5727C33.1247 51.5505 34.4355 51.5662 35.7463 51.5491C36.711 51.536 37.584 51.2096 38.381 50.6801C39.7822 49.7481 40.4153 48.3613 40.7653 46.77C41.1913 44.83 40.0208 43.24 38.0428 43.1837C37.3664 43.1627 36.6888 43.1797 36.0111 43.1797Z" fill="white"></path>
  <path d="M65.6545 54.3845C64.9335 54.3845 64.2087 54.4317 63.4943 54.3687C62.9267 54.3189 62.7471 54.5536 62.6344 55.0556C62.3486 56.331 62.0144 57.5946 61.6946 58.8621C61.5478 59.4428 61.186 59.823 60.5856 59.9252C59.5252 60.1048 58.7374 59.2213 59.0061 58.1346C59.9093 54.4762 60.8255 50.8204 61.7404 47.1646C62.1953 45.3479 62.6541 43.5311 63.1141 41.7157C63.3684 40.7155 63.7827 40.397 64.8339 40.3944C66.6467 40.3918 68.4596 40.3852 70.2711 40.3944C73.8836 40.414 76.4462 43.4289 75.838 46.9798C75.2652 50.321 73.5559 52.7853 70.258 53.9572C68.761 54.4893 67.2012 54.3818 65.6545 54.3845ZM66.2286 51.565C67.099 51.5243 68.1371 51.6869 69.1359 51.3788C71.3669 50.6907 72.5191 49.0928 73.0106 46.8723C73.4668 44.8117 72.3133 43.2178 70.2186 43.1851C68.8436 43.1641 67.4686 43.1903 66.0936 43.1719C65.7567 43.1667 65.585 43.2585 65.5024 43.6006C64.8929 46.0963 64.2781 48.5908 63.6372 51.0786C63.5231 51.5204 63.649 51.5885 64.0474 51.5728C64.7238 51.5453 65.4015 51.565 66.2286 51.565Z" fill="white"></path>
  <path d="M52.1594 43.1798C51.483 43.1785 50.8054 43.1994 50.1303 43.1719C49.7161 43.1549 49.5326 43.2466 49.4526 43.712C48.9217 46.7818 48.3463 49.8439 47.7905 52.9098C47.6031 53.9414 46.9621 54.505 46.1311 54.353C45.3223 54.2049 44.8439 53.5115 44.9972 52.6581C45.5976 49.313 46.2084 45.9692 46.814 42.6253C47.105 41.017 47.3934 39.4086 47.6817 37.8003C47.8862 36.6612 48.5088 36.0648 49.3635 36.2208C50.2679 36.3859 50.7883 37.2786 50.4475 38.3036C50.2706 38.8345 50.2614 39.4204 50.1369 39.9723C50.053 40.3445 50.188 40.4075 50.5235 40.4035C51.8107 40.3878 53.0992 40.3904 54.3864 40.3983C57.4734 40.4166 59.606 43.0657 58.9821 46.0989C58.5036 48.4243 58.0291 50.7509 57.5363 53.0723C57.3331 54.0305 56.6803 54.5116 55.8834 54.3412C55.0471 54.1629 54.6067 53.4538 54.7915 52.5585C55.2699 50.2332 55.7536 47.9091 56.2347 45.5838C56.5191 44.2101 55.7339 43.2178 54.3196 43.1837C53.6 43.1667 52.8803 43.1798 52.1594 43.1798Z" fill="white"></path>
</svg>
